v -0.349182099 0.13367483 0.0 
v 0.0490117073 -0.0299527552 0.0 
v 0.0441043004 -0.0316603854 0.0 
v -0.05044581 -0.0100822579 0.0 
v 0.329559922 0.527585864 0.0 
v -0.0703321919 -0.00730293943 0.0 
v -0.159462214 0.00193107908 0.0 
v 0.0296829455 0.102256492 0.0 
v 0.00822835043 -0.0227553211 0.0 
v -0.129820421 -0.00703890109 0.0 
v 0.0182303973 -0.0250132717 0.0 
v -0.0579979084 0.0564842075 0.0 
v -0.0842540935 0.0634860992 0.0 
v -0.0533869155 0.00927497447 0.0 
v -0.027122546 -0.0328656137 0.0 
v 0.0223654136 -0.0255169645 0.0 
v 0.0240649879 -0.0274576638 0.0 
v 0.0639772415 -0.0541174337 0.0 
v -0.137277067 -0.11431399 0.0 
v -0.178858563 -0.0138395 0.0 
v -0.412616253 -0.00919790659 0.0 
v -0.443111241 0.132070094 0.0 
v -0.216729954 -0.0214365367 0.0 
v -0.214435145 0.00627452228 0.0 
v -0.211393386 0.0352885351 0.0 
v -0.239806369 0.043280825 0.0 
v 0.0653535277 0.109715842 0.0 
v -0.132825136 -0.104757644 0.0 
v -0.139201641 -0.0783865377 0.0 
v 0.043903444 -0.0488518514 0.0 
v 0.0163932219 -0.0186570156 0.0 
v 0.0210162159 -0.0220583025 0.0 
v 0.294808209 0.341564 0.0 
v 0.000843200251 -0.0310733672 0.0 
v 0.0157096293 -0.0207340885 0.0 
v -0.136796504 -0.102610521 0.0 
v -0.0177038163 0.0326546803 0.0 
v -0.0338967741 0.0225138068 0.0 
v 0.0147751728 0.158353209 0.0 
v -0.130880475 -0.0996795595 0.0 
v -0.127690911 -0.99181354 0.0 
v 0.446892381 0.568754315 0.0 
v 0.022729516 0.13615714 0.0 
v -0.129141644 -0.0966069549 0.0 
v 0.0178706013 -0.0156219136 0.0 
v -0.120291829 -0.0930962712 0.0 
v 0.0238103066 -0.0240831636 0.0 
v 0.0234473553 -0.0241674073 0.0 
v 0.0147918407 -0.019215649 0.0 
v -0.134970576 -0.0884470493 0.0 
v 0.0229285508 -0.0247327536 0.0 
v -0.13341926 -0.103191316 0.0 
v -0.201256827 -0.0444643795 0.0 
v -0.00532238325 0.117015831 0.0 
v -0.130665272 -0.0940185264 0.0 
v -0.372381836 0.330364764 0.0 
v -0.751066804 -0.660226107 0.0 
v -0.699349165 -0.714779973 0.0 
v -0.00242054975 -0.0451274514 0.0 
v -0.550658166 0.26802808 0.0 
v 0.0179841407 -0.0268978663 0.0 
v 0.000899401843 -0.013138664 0.0 
v 0.0233401358 -0.0234796163 0.0 
v 0.196815819 0.34040457 0.0 
v -0.141182512 -0.125132233 0.0 
v 0.184845075 0.0964450389 0.0 
v -0.182654083 -0.119644545 0.0 
v -0.962877393 0.269938856 0.0 
v -0.0622508228 0.159397334 0.0 
v 0.0337921903 -0.0296415016 0.0 
v 0.0232996196 -0.0254065618 0.0 
v -0.262819231 0.251582533 0.0 
v -0.0323695429 0.31494832 0.0 
v -0.142238081 -0.110924758 0.0 
v -0.118921757 -0.0896916166 0.0 
v -0.227720067 -0.0493857302 0.0 
v -0.160729647 -0.052037742 0.0 
v -0.140798047 0.114483528 0.0 
v 0.142892063 -0.134896308 0.0 
v -0.115940541 -0.0884067714 0.0 
v -0.089842841 0.122022524 0.0 
v -0.241983309 0.0990176275 0.0 
v -0.136658877 -0.10760089 0.0 
v 0.666555941 0.745454848 0.0 
v -0.502574563 -0.0704959184 0.0 
v 0.0193558317 -0.0309679601 0.0 
v 0.0181631036 -0.0290063638 0.0 
v -0.0810093433 0.145051956 0.0 
v -0.040744178 0.214033484 0.0 
v -0.133975625 -0.0942186043 0.0 
v 0.424780041 0.0887558758 0.0 
v -0.133600071 -0.0916241035 0.0 
v 0.181872606 0.432128072 0.0 
v -0.31951502 0.462327778 0.0 
v -0.119276486 -0.132683158 0.0 
v -0.0845384747 -0.25534007 0.0 
v -0.993082047 -0.117422819 0.0 
v -0.0913486108 -0.206954241 0.0 
v 0.0225671064 -0.0228949524 0.0 
v -0.267655253 0.367097437 0.0 
v -0.285368234 0.388433903 0.0 
v -0.298169255 0.426764607 0.0 
v -0.132691741 -0.10180179 0.0 
v -0.269900233 0.467641652 0.0 
v -0.135364443 -0.108133599 0.0 
v 0.0231467392 -0.0278223716 0.0 
v 0.184316963 0.875979781 0.0 
v -0.13478075 -0.113337129 0.0 
v -0.194786668 -0.0250830855 0.0 
v -0.257036656 0.383444071 0.0 
v -0.0130682625 0.0144696189 0.0 
v -0.255178809 0.415050387 0.0 
v -0.257384121 0.583980978 0.0 
v -0.0737590343 0.0425190404 0.0 
v -0.0411500745 -0.0376551747 0.0 
v 0.0272263829 -0.0284027252 0.0 
v -0.741695583 0.220428467 0.0 
v -0.235181168 0.387561053 0.0 
v -0.233903706 0.0214597415 0.0 
v -0.920992434 -0.38958028 0.0 
v -0.228411943 0.44281733 0.0 
v -0.253721744 0.519195676 0.0 
v -0.218816087 0.660546124 0.0 
v -0.843566239 -0.431330383 0.0 
v -0.00681296457 -0.0364826508 0.0 
v -0.196722835 0.440586656 0.0 
v -0.20807372 0.482117891 0.0 
v -0.207019523 0.537019908 0.0 
v -0.129011109 0.647551239 0.0 
v 0.543533862 0.631774426 0.0 
v 0.0159476455 -0.0255347714 0.0 
v -0.00475655776 0.135132685 0.0 
v -0.175999135 0.586244702 0.0 
v 0.0226667542 -0.0239286907 0.0 
v -0.133436695 -0.118453063 0.0 
v -0.133996665 -0.107544862 0.0 
v 0.0145693151 -0.0229232498 0.0 
v 0.151604429 0.394926131 0.0 
v -0.209706008 0.371542841 0.0 
v -0.212184474 0.40869081 0.0 
v 0.275716394 -0.0361434221 0.0 
v -0.185967639 0.387974471 0.0 
v -0.139805496 -0.113392934 0.0 
v 0.0220879242 -0.0272392891 0.0 
v 0.0239369031 -0.0243461113 0.0 
v 0.0236457605 -0.0247983579 0.0 
v -0.201713577 0.314476818 0.0 
v -0.189617679 0.273975015 0.0 
v -0.167872623 0.276669294 0.0 
v -0.103845462 0.57480979 0.0 
v 0.0293916427 -0.0366074927 0.0 
v 0.0341298766 -0.0334550962 0.0 
v -0.173017934 0.233791754 0.0 
v -0.175157994 0.258401781 0.0 
v -0.197023898 0.229059935 0.0 
v -0.153934911 0.382917196 0.0 
v -0.17412293 0.415302634 0.0 
v 0.0842118636 0.128463104 0.0 
v 0.241585925 0.344573617 0.0 
v 0.43777293 0.461633176 0.0 
v -0.309737265 0.373436123 0.0 
v 0.124498136 -0.0277191028 0.0 
v -0.0468981899 0.553465068 0.0 
v 0.0234760102 -0.0294046327 0.0 
v -0.0485831574 0.61780858 0.0 
v 0.0282784179 -0.0281353574 0.0 
v -0.160821125 0.454004526 0.0 
v -0.082662411 0.530228794 0.0 
v -0.202317998 0.290387928 0.0 
v -0.212452337 0.272724897 0.0 
v -0.197576076 0.251172394 0.0 
v -0.189234585 0.206934527 0.0 
v 0.0969147384 0.309828311 0.0 
v 0.0215709656 -0.0237188786 0.0 
v -0.112904847 -0.125554383 0.0 
v -0.33838886 0.429021269 0.0 
v -0.362136513 -0.0250652153 0.0 
v 0.543320477 0.40577054 0.0 
v -0.0051835198 -0.0225357637 0.0 
v -0.0527030528 0.52007091 0.0 
v -0.00332735782 0.152276516 0.0 
v -0.135106564 0.417642444 0.0 
v -0.110982031 0.454817533 0.0 
v -0.0699466094 0.489238083 0.0 
v -0.146440342 -0.072597675 0.0 
v -0.326231301 0.52521795 0.0 
v -0.133570209 -0.0501042269 0.0 
v -0.119312666 0.132071942 0.0 
v -0.198340148 -0.00829871092 0.0 
v 0.162816629 0.249066785 0.0 
v -0.344409436 -0.503353179 0.0 
v -0.215369254 0.235776007 0.0 
v -0.15983741 0.207321823 0.0 
v -0.119049788 -0.0854616687 0.0 
v -0.136084169 0.169553638 0.0 
v -0.011304996 0.507351756 0.0 
v 0.793538094 -0.455032498 0.0 
v -0.223654792 0.0586855337 0.0 
v 0.0149529884 -0.0142107056 0.0 
v 0.0202386826 0.46133104 0.0 
v 0.0305597149 -0.0288197845 0.0 
v 0.00952338986 -0.0162339415 0.0 
v 0.172695175 -0.15417318 0.0 
v 0.0789475739 0.498905748 0.0 
v -0.201154426 0.15760693 0.0 
v -0.026483329 0.45793125 0.0 
v 0.0168798156 0.0732721016 0.0 
v 0.0193585493 -0.0340719521 0.0 
v 0.039608933 -0.0282132905 0.0 
v -0.0179351494 0.144496173 0.0 
v -0.14883323 -0.125811055 0.0 
v -0.129966646 -0.15863362 0.0 
v -0.13595964 -0.0694786906 0.0 
v 0.0701803192 0.269182354 0.0 
v -0.143287644 -0.10477677 0.0 
v 0.122426249 0.435136497 0.0 
v 0.156207785 0.475196451 0.0 
v 0.298004359 0.0998126045 0.0 
v -0.0992650613 0.144634619 0.0 
v -0.00217629015 0.309887975 0.0 
v -0.0655718297 0.440706551 0.0 
v -0.220393464 0.254477441 0.0 
v -0.156649679 0.170480385 0.0 
v 0.0175487548 -0.0227523632 0.0 
v 0.506617844 0.152103558 0.0 
v -0.0945272893 0.413753659 0.0 
v 0.01770995 0.570520818 0.0 
v -0.98484093 -0.173459396 0.0 
v 0.0590876155 0.249958172 0.0 
v 0.999999881 1.2772424e-08 0.0 
v 0.180627763 -0.0698562041 0.0 
v 0.749146104 -0.0736485198 0.0 
v 0.162458748 -0.0384609886 0.0 
v 0.114922777 -0.163227364 0.0 
v 0.693757236 -0.426086873 0.0 
v 0.765365541 -0.341690928 0.0 
v 0.0281927753 -0.0299277473 0.0 
v -0.134498611 -0.115608431 0.0 
v -0.244676843 0.310596794 0.0 
v -0.225477368 0.296269059 0.0 
v -0.510253847 0.365582287 0.0 
v -0.237238362 0.242646769 0.0 
v -0.217918053 0.196679652 0.0 
v -0.328529984 -0.101033472 0.0 
v 0.0147537291 0.233277723 0.0 
v 0.0345219076 -0.0669370443 0.0 
v 0.043316476 -0.0278918725 0.0 
v -0.149282426 -0.119732693 0.0 
v -0.146993995 -0.113537148 0.0 
v 0.589920461 0.807461262 0.0 
v 0.746853292 0.664988756 0.0 
v 0.117994145 0.219298333 0.0 
v 0.152062133 0.202903166 0.0 
v -0.0559552535 0.331934243 0.0 
v 0.792322457 0.610102296 0.0 
v 0.098772198 0.150459841 0.0 
v 0.0214478746 -0.0262767542 0.0 
v 0.546400309 -0.706504703 0.0 
v -0.251137793 0.331929147 0.0 
v -0.249223977 0.293143272 0.0 
v -0.23933138 0.270067304 0.0 
v -0.230062172 0.219674528 0.0 
v -0.0765504465 0.308194965 0.0 
v 0.0281180888 -0.040266566 0.0 
v 0.0386984684 0.310996562 0.0 
v 0.0472812951 0.0984553993 0.0 
v -0.121901877 -0.113411531 0.0 
v -0.274945766 0.333760411 0.0 
v -0.267714769 0.279627144 0.0 
v -0.144589916 0.227251485 0.0 
v -0.17641148 0.158615083 0.0 
v -0.28913638 0.355132431 0.0 
v -0.129380465 -0.107036568 0.0 
v -0.1308963 -0.109377123 0.0 
v -0.131602257 -0.113028795 0.0 
v -0.133111447 -0.105676852 0.0 
v 0.0364732221 0.13149792 0.0 
v 0.174867123 0.226160809 0.0 
v -0.788193285 -0.615427554 0.0 
v -0.150267273 -0.0976476595 0.0 
v -0.154923886 -0.026801046 0.0 
v -0.132171527 -0.111512057 0.0 
v -0.128042355 -0.116589621 0.0 
v -0.186756372 -0.0843339637 0.0 
v -0.132315159 -0.109926805 0.0 
v 0.296337247 0.462153524 0.0 
v -0.255454749 0.224302694 0.0 
v 0.0275676232 -0.0307957958 0.0 
v -0.163636208 -0.108379357 0.0 
v 0.880682528 -0.39629215 0.0 
v 0.0119279446 -0.0122352391 0.0 
v 0.0234188363 -0.0402779542 0.0 
v -0.131678537 -0.10875003 0.0 
v -0.133260056 -0.111119226 0.0 
v 0.0251298826 -0.0233768374 0.0 
v -0.436510473 -0.0795138702 0.0 
v -0.408018559 -0.151888952 0.0 
v -0.131209597 -0.097407043 0.0 
v 0.0730964616 -0.126733616 0.0 
v 0.0439995043 -0.0571239777 0.0 
v 0.193526655 0.253994256 0.0 
v -0.137763679 -0.109646589 0.0 
v -0.441271305 0.795895994 0.0 
v -0.291218519 0.75071758 0.0 
v -0.292979538 0.65449965 0.0 
v -0.133118913 -0.114014946 0.0 
v -0.129325464 -0.109053604 0.0 
v -0.268919557 0.30915606 0.0 
v 0.316592991 0.0674747229 0.0 
v -0.997483313 0.0709023625 0.0 
v -0.36488536 0.462993354 0.0 
v -0.131949022 -0.10773176 0.0 
v -0.132516369 -0.108605482 0.0 
v 0.268411905 0.297113091 0.0 
v 0.0134793259 -0.0403893664 0.0 
v -0.133197844 -0.107708916 0.0 
v 0.23284933 0.476915032 0.0 
v -0.0962114707 -0.323292464 0.0 
v 0.0157250874 -0.0313806012 0.0 
v -0.133159101 -0.0962176323 0.0 
v -0.0506799743 0.199270636 0.0 
v -0.131479174 -0.115661077 0.0 
v 0.322525382 0.9465608 0.0 
v -0.455484927 0.890243471 0.0 
v 0.0626999438 0.0835647359 0.0 
v -0.326921493 0.605143011 0.0 
v -0.300600052 0.323185146 0.0 
v -0.294137746 0.291850537 0.0 
v -0.291856885 0.261963248 0.0 
v -0.134043992 -0.108202755 0.0 
v -0.205575079 -0.104439162 0.0 
v -0.0907609314 -0.137457505 0.0 
v 0.0260044802 -0.0284096543 0.0 
v -0.236347243 0.18229872 0.0 
v 0.0273672771 -0.0294407979 0.0 
v 0.0224201418 -0.0361888409 0.0 
v 0.13853249 0.140017793 0.0 
v 0.0289127957 -0.0306222979 0.0 
v 0.617820561 -0.502189934 0.0 
v -0.370557398 0.672110677 0.0 
v -0.387455195 0.589905858 0.0 
v 0.0348420925 -0.0303418208 0.0 
v 0.0336336158 -0.0313564539 0.0 
v -0.0788673684 -0.169065893 0.0 
v 0.0321186967 0.758235514 0.0 
v -0.144996896 -0.0445887186 0.0 
v 0.0287837815 -0.0322954208 0.0 
v 0.557451487 0.513877153 0.0 
v 0.55596143 -0.349688381 0.0 
v -0.507891476 0.861421049 0.0 
v 0.0232688934 -0.0316233821 0.0 
v -0.13495636 -0.108067133 0.0 
v -0.197222665 -0.169708937 0.0 
v -0.180083185 -0.140086964 0.0 
v -0.136001199 -0.107961386 0.0 
v 0.0246955231 -0.0294246953 0.0 
v 0.172864065 0.0528559946 0.0 
v 0.0268141776 -0.0297698937 0.0 
v 0.125725657 0.335638851 0.0 
v -0.0277834293 0.226805046 0.0 
v -0.0395337865 0.071757786 0.0 
v 0.026192192 -0.0872325003 0.0 
v -0.127257541 -0.0978132486 0.0 
v -0.140747264 -0.105385683 0.0 
v -0.115504019 0.157657117 0.0 
v -0.559753716 0.828658879 0.0 
v 0.0296832267 -0.030051617 0.0 
v 0.396049321 0.40891695 0.0 
v -0.0942775011 -0.111907206 0.0 
v 0.0232239366 -0.0202187523 0.0 
v -0.139998272 -0.111522183 0.0 
v 0.0368719995 -0.0533355735 0.0 
v 0.0269822758 -0.0291232411 0.0 
v -0.00988931768 0.248165801 0.0 
v 0.080158174 -0.0137266405 0.0 
v 0.252127409 0.767298341 0.0 
v -0.565484405 0.739674389 0.0 
v -0.483498484 0.636502266 0.0 
v 0.0226504896 0.00665478781 0.0 
v -0.16852656 -0.100801937 0.0 
v 0.0260850489 -0.0289370455 0.0 
v -0.131614953 -0.120917693 0.0 
v -0.270667881 0.145524561 0.0 
v -0.133451119 -0.221197143 0.0 
v -0.101350427 -0.118098132 0.0 
v -0.0933271945 -0.121714666 0.0 
v -0.610259712 0.792201221 0.0 
v 0.0189849194 -0.0441456027 0.0 
v -0.125762209 -0.113743953 0.0 
v 0.031481836 -0.0292455833 0.0 
v -0.276821762 -0.150863722 0.0 
v -0.0119386297 0.367981195 0.0 
v -0.89467454 -0.446718335 0.0 
v -0.941704452 -0.336440951 0.0 
v -0.0200330168 0.0655836537 0.0 
v -0.361958355 0.0798342228 0.0 
v -0.13364695 -0.105124213 0.0 
v -0.656278372 0.754518688 0.0 
v -0.397592813 0.0520192012 0.0 
v -0.141461566 -0.112479024 0.0 
v 0.0302710887 -0.0310302638 0.0 
v 0.676531613 -0.73641336 0.0 
v -0.136391401 -0.103429012 0.0 
v -0.0922104791 0.040599335 0.0 
v 0.0221464038 -0.0245785378 0.0 
v -0.0831076056 0.226616412 0.0 
v 0.331048459 0.110600494 0.0 
v -0.107672237 -0.15441604 0.0 
v 0.0583256707 0.418108314 0.0 
v 0.037956439 -0.0457562543 0.0 
v 0.307270914 -0.150600284 0.0 
v 0.0351650715 0.0804756135 0.0 
v 0.0267604124 -0.0293766707 0.0 
v -0.133648023 -0.0987490863 0.0 
v 0.022841515 0.204080895 0.0 
v -0.111352175 -0.112551592 0.0 
v -0.111759059 -0.118293092 0.0 
v 0.0920749009 0.197511703 0.0 
v -0.0515212007 0.305013418 0.0 
v 0.273177296 0.215782508 0.0 
v 0.0197729934 -0.0591198504 0.0 
v 0.345627695 -0.0300296489 0.0 
v 0.210176334 0.297477663 0.0 
v 0.3765755 -0.0980849937 0.0 
v 0.631892979 0.775055468 0.0 
v -0.136126235 -0.108746305 0.0 
v 0.997654557 -0.0684494525 0.0 
v -0.698735535 0.715379834 0.0 
v -0.032747522 0.0473122224 0.0 
v 0.366224259 0.0355765745 0.0 
v 0.442440897 -0.272572607 0.0 
v 0.0167574398 0.347858161 0.0 
v 0.00986523554 0.184324846 0.0 
v -0.239353344 -0.00195693993 0.0 
v -0.0574680269 0.403896689 0.0 
v -0.0894010738 -0.103946798 0.0 
v 0.97612226 -0.217221737 0.0 
v 0.882975757 0.0176548492 0.0 
v -0.74190712 0.670502126 0.0 
v -0.57827127 0.431141704 0.0 
v -0.135232344 -0.0929852352 0.0 
v -0.139918759 0.513560116 0.0 
v 0.92272073 -0.316124976 0.0 
v 0.120155603 -0.114314638 0.0 
v -0.136121288 -0.106757037 0.0 
v 0.0265872367 -0.189981565 0.0 
v 0.717216015 -0.696850657 0.0 
v 0.0273609236 -0.0266135745 0.0 
v 0.61112237 -0.19763726 0.0 
v 0.208392069 0.0270092078 0.0 
v 0.442859232 0.367683411 0.0 
v -0.780936301 0.533438385 0.0 
v 0.0768995509 -0.221518084 0.0 
v -0.636379838 0.374109656 0.0 
v -0.144367933 -0.120026633 0.0 
v 0.0361372642 -0.0341923311 0.0 
v -0.0926483721 -0.0962579474 0.0 
v 0.833401859 -0.55266726 0.0 
v 0.795733452 -0.60564667 0.0 
v -0.157953471 -0.0807737783 0.0 
v -0.0210951846 -0.0190956686 0.0 
v 0.152499855 -0.22034651 0.0 
v 0.316773653 -0.365899652 0.0 
v 0.0238615181 -0.0227929391 0.0 
v 0.362353057 0.0851473883 0.0 
v -0.155485466 -0.121233039 0.0 
v 0.2104875 -0.0289698485 0.0 
v 0.307258338 -0.0836372003 0.0 
v 0.0299608521 0.175120935 0.0 
v -0.660109282 0.475034893 0.0 
v 0.104609415 -0.0538381264 0.0 
v 0.0512437336 -0.278911948 0.0 
v 0.163794741 -0.107870065 0.0 
v 0.0260880142 -0.0307695232 0.0 
v 0.618096888 -0.410895914 0.0 
v -0.20784606 -0.206244931 0.0 
v -0.00897330604 -0.00588486809 0.0 
v -0.127883971 -0.120545864 0.0 
v 0.208825886 0.0655597821 0.0 
v 0.441901118 -0.0138952928 0.0 
v 0.207523093 -0.299853981 0.0 
v 0.632076681 -0.630991876 0.0 
v -0.12007837 -0.115797281 0.0 
v -0.776474893 0.630148053 0.0 
v 0.694956899 -0.524233401 0.0 
v 0.0117706256 0.108737916 0.0 
v -0.161340445 -0.0938813314 0.0 
v -0.135927647 -0.127976388 0.0 
v -0.144492015 -0.109031148 0.0 
v 0.13360773 0.0411305316 0.0 
v -0.256979853 -0.0476182662 0.0 
v 0.632813632 0.709621489 0.0 
v -0.135341913 -0.11072877 0.0 
v 0.000946650165 -0.295662552 0.0 
v 0.27865085 0.0460629091 0.0 
v 0.253732651 0.0130974231 0.0 
v 0.383058876 -0.179255128 0.0 
v 0.306090802 0.0160064269 0.0 
v 0.289858311 0.255037755 0.0 
v -0.5512532 -0.0881707594 0.0 
v 0.474335879 -0.131092384 0.0 
v 0.0794060901 0.226783738 0.0 
v 0.672765553 -0.322478473 0.0 
v -0.103875168 -0.111047603 0.0 
v 0.792290092 -0.208871454 0.0 
v 0.954647303 -0.297738552 0.0 
v -0.959395468 -0.282064229 0.0 
v 0.882536769 -0.0939957052 0.0 
v -0.093451038 -0.0619962439 0.0 
v 0.0275296904 -0.0343562253 0.0 
v 0.273779333 0.0791167244 0.0 
v 0.633379459 -0.773841202 0.0 
v -0.0568720065 0.225851923 0.0 
v -0.805473804 0.592631221 0.0 
v -0.600986362 0.260666788 0.0 
v -0.0442606322 -0.99901998 0.0 
v 0.0266235005 -0.117189713 0.0 
v 0.0238651708 -0.999715149 0.0 
v -0.0240129102 -0.911660254 0.0 
v 0.0762594566 -0.997087955 0.0 
v -0.00463774381 0.184931263 0.0 
v -0.119385041 -0.871593118 0.0 
v -0.157077998 -0.77403456 0.0 
v -0.325730145 -0.242860183 0.0 
v 0.0408317037 -0.0309831519 0.0 
v 0.00345616508 0.215259284 0.0 
v 0.127487555 -0.991840124 0.0 
v -0.254903346 -0.198682472 0.0 
v 0.0175299365 -0.0204269253 0.0 
v 0.194550082 -0.980892777 0.0 
v 0.0698707029 0.319693089 0.0 
v -0.0515053123 -0.794366062 0.0 
v 0.0251263734 -0.0288911536 0.0 
v 0.262033522 -0.965058684 0.0 
v 0.0254197773 -0.0283487514 0.0 
v 0.294359535 -0.916545212 0.0 
v 0.0389398597 -0.817737103 0.0 
v -0.841281712 0.540596783 0.0 
v -0.266189158 -0.752971113 0.0 
v -0.0660940856 -0.139207602 0.0 
v 0.322294623 -0.946639359 0.0 
v 0.111946478 -0.907376647 0.0 
v 0.127596572 -0.763146579 0.0 
v 0.38082391 -0.92464751 0.0 
v 0.22262831 -0.892774403 0.0 
v -0.190580308 -0.660151303 0.0 
v -0.185957819 -0.468875259 0.0 
v 0.436018527 -0.89993757 0.0 
v 0.220204279 -0.811535835 0.0 
v 0.0342785381 -0.0432942621 0.0 
v -0.11351338 -0.0849343315 0.0 
v 0.028435858 -0.0538388938 0.0 
v -0.0781702027 -0.679035366 0.0 
v -0.141810253 -0.107109137 0.0 
v -0.196721137 -0.389732033 0.0 
v -0.131065458 -0.106704831 0.0 
v 0.292081118 -0.847521961 0.0 
v -0.113768362 -0.545163155 0.0 
v 0.0238786675 -0.0263413973 0.0 
v -0.11559169 -0.107939512 0.0 
v 0.030674478 -0.71213609 0.0 
v 0.0132363038 -0.588360667 0.0 
v 0.00124800613 -0.454173952 0.0 
v -0.110908151 -0.41141209 0.0 
v -0.099891901 -0.102273777 0.0 
v 0.373119444 0.123329259 0.0 
v 0.539053142 -0.842271686 0.0 
v 0.488332361 -0.872657597 0.0 
v 0.386105001 -0.858281136 0.0 
v 0.587300897 -0.809368491 0.0 
v -0.030148346 0.287837297 0.0 
v -0.877444983 0.479677171 0.0 
v 0.229864672 -0.69992274 0.0 
v 0.0379665755 -0.0303329397 0.0 
v 0.337108523 -0.758473098 0.0 
v 0.133949637 -0.63017118 0.0 
v 0.105484247 -0.509484529 0.0 
v 0.239948094 0.250668347 0.0 
v -0.139178932 -0.110248655 0.0 
v -0.133441299 -0.108909912 0.0 
v 0.236613184 -0.602091312 0.0 
v 0.323715955 -0.634118497 0.0 
v -0.0336663723 -0.355170369 0.0 
v 0.43377769 -0.66974479 0.0 
v 0.0968081653 -0.41979757 0.0 
v 0.161383867 0.00489266077 0.0 
v -0.0486235619 -0.296652436 0.0 
v 0.403574079 -0.564291358 0.0 
v 0.194178 -0.536056399 0.0 
v -0.0296481494 -0.253796637 0.0 
v -0.775414824 0.364146262 0.0 
v -0.0467132702 -0.118894488 0.0 
v -0.0128237223 -0.122015007 0.0 
v 0.517856061 -0.566895545 0.0 
v 0.301357597 -0.510187805 0.0 
v 0.193485379 -0.428347498 0.0 
v 0.0119842067 0.0337479003 0.0 
v 0.0148240682 -0.23961477 0.0 
v -0.283029974 -0.655569792 0.0 
v 0.0237156115 -0.0258406065 0.0 
v 0.364528984 0.70649004 0.0 
v -0.116364114 -0.0518146381 0.0 
v 0.441163242 -0.440510064 0.0 
v 0.550179601 -0.454035938 0.0 
v 0.0257100351 0.0606431849 0.0 
v -0.0108980369 -0.183428049 0.0 
v 0.025141282 -0.0274513904 0.0 
v 0.0254359189 -0.0267270878 0.0 
v 0.00546292169 -0.153409466 0.0 
v -0.0363096371 -0.156257883 0.0 
v -0.117590249 -0.118739493 0.0 
v -0.0276211258 -0.0946873948 0.0 
v -0.091513671 -0.0884933621 0.0 
v -0.908474624 0.417939693 0.0 
v 0.164943159 0.532897115 0.0 
v 0.0259332936 -0.0369195342 0.0 
v 0.0289782658 -0.0296329353 0.0 
v -0.0823683217 -0.0949328169 0.0 
v -0.143909201 -0.0593433492 0.0 
v -0.160123423 -0.134302363 0.0 
v 0.0208831299 -0.0504712723 0.0 
v -0.1316237 -0.102380238 0.0 
v 0.142625138 0.686456084 0.0 
v 0.0759390369 0.149747819 0.0 
v 0.0906800255 -0.0328459851 0.0 
v -0.0596117564 -0.0868368 0.0 
v -0.246460244 0.127146065 0.0 
v 0.334094584 0.293357253 0.0 
v 0.11737898 0.00840281975 0.0 
v 0.408396035 0.176313207 0.0 
v 0.355286986 0.367506951 0.0 
v -0.0761938468 -0.0463186912 0.0 
v -0.938427567 0.345476002 0.0 
v -0.681567788 0.170271724 0.0 
v 0.0144971767 0.388060093 0.0 
v -0.130715877 -0.10810899 0.0 
v 0.147952467 0.23072812 0.0 
v -0.165659726 -0.0676435977 0.0 
v -0.148252532 -0.277703136 0.0 
v -0.645849586 -0.76346451 0.0 
v 0.0358714648 -0.0317877159 0.0 
v 0.0257418398 -0.027699396 0.0 
v -0.140715837 0.0744350329 0.0 
v 0.0201923139 -0.0289829131 0.0 
v -0.00157100509 0.199288934 0.0 
v -0.990808964 0.135267958 0.0 
v 0.370380104 0.619680345 0.0 
v -0.154938489 -0.0664792284 0.0 
v 0.0217616074 -0.0147103099 0.0 
v 0.0266293511 -0.0323042274 0.0 
v -0.129324377 -0.0985993072 0.0 
v 0.0178294592 0.287593931 0.0 
v 0.0254185684 -0.0258312523 0.0 
v -0.874122679 0.256399572 0.0 
v -0.553995907 0.370339245 0.0 
v 0.0370965749 -0.0281781349 0.0 
v 0.440132737 0.897932649 0.0 
v -0.0384939425 0.144543782 0.0 
v 0.49492991 0.868932486 0.0 
v -0.136577711 -0.109344348 0.0 
v -0.000842016016 0.170461878 0.0 
v 0.0360309519 -0.0296946373 0.0 
v 0.0275525227 -0.0298815109 0.0 
v 0.0134247188 -0.0204293411 0.0 
v -0.265303463 -0.0153096914 0.0 
v -0.13461864 -0.10831596 0.0 
v -0.135083199 -0.108573027 0.0 
v 0.030508928 -0.0297754407 0.0 
v -0.129163802 -0.113499217 0.0 
v -0.14667955 -0.0811244473 0.0 
v 0.0100132106 0.126638427 0.0 
v -0.131975621 -0.104184128 0.0 
v 0.0136397937 -0.0170421507 0.0 
v 0.474011153 -0.788186014 0.0 
v 0.0215574931 -0.00735998154 0.0 
v 0.400379151 0.257097632 0.0 
v 0.44867 0.298924506 0.0 
v 0.00161527738 -0.0916510969 0.0 
v 0.0223199129 -0.0193310697 0.0 
v 0.0978798792 0.0961460248 0.0 
v 0.032498274 -0.0327791497 0.0 
v 0.215424955 0.192452475 0.0 
v -0.153377876 -0.0918425098 0.0 
v 0.619437635 0.339221865 0.0 
v 0.0256957486 0.120258689 0.0 
v 0.871095717 0.491113096 0.0 
v -0.104566023 0.212937087 0.0 
v 0.0114121772 -0.0347971991 0.0 
v 0.0307960398 -0.0431434475 0.0 
v 0.0142967869 0.0496713407 0.0 
v 0.0492215604 0.0557903908 0.0 
v 0.153148457 0.112900279 0.0 
v -0.301050246 -0.000102550577 0.0 
v 0.192876071 0.154288977 0.0 
v 0.24805592 0.183345541 0.0 
v 0.481196731 0.238809392 0.0 
v 0.522657275 0.314118117 0.0 
v 0.679744482 0.438089579 0.0 
v 0.833287776 0.428103089 0.0 
v -0.200629756 -0.133974954 0.0 
v 0.898450375 0.439074844 0.0 
v -0.148973271 -0.0868070275 0.0 
v -0.107395075 -0.0870473161 0.0 
v 0.110467553 0.0631188899 0.0 
v -0.745982528 -0.00118470436 0.0 
v -0.135169581 -0.107497312 0.0 
v 0.174140334 0.133845806 0.0 
v 0.0285597797 0.0431835838 0.0 
v -0.134426266 -0.0966667384 0.0 
v -0.146026462 -0.0932372361 0.0 
v -0.195878863 0.179138348 0.0 
v -0.140829057 -0.0870572031 0.0 
v 0.140129685 0.082098715 0.0 
v 0.209837198 0.130985305 0.0 
v 0.219148293 0.162963927 0.0 
v 0.253043592 0.141498685 0.0 
v 0.290692925 0.174455568 0.0 
v 0.600459933 0.234299377 0.0 
v 0.924198568 0.381912053 0.0 
v -0.143008262 -0.112249896 0.0 
v -0.125799626 -0.105216108 0.0 
v 0.0428543128 -0.0245450661 0.0 
v 0.0271273647 0.0281852186 0.0 
v 0.021143619 -0.0320982821 0.0 
v -0.851770878 -0.101396263 0.0 
v -0.757151008 -0.119459905 0.0 
v 0.234969884 0.0968694612 0.0 
v 0.297201395 0.13200967 0.0 
v 0.0355268046 -0.028298445 0.0 
v -0.115652248 -0.181383595 0.0 
v -0.10968376 -0.0958525166 0.0 
v 0.0430187285 0.031063458 0.0 
v 0.0812983364 0.0608051643 0.0 
v 0.0994223356 0.0354141258 0.0 
v -0.343265384 0.164188311 0.0 
v 0.610026002 0.111726992 0.0 
v 0.712278724 0.180284217 0.0 
v -0.115759373 -0.0922483802 0.0 
v 0.0665058196 0.0106858443 0.0 
v 0.0680989549 0.0307969395 0.0 
v -0.0162636973 -0.227725685 0.0 
v 0.751006007 0.303831667 0.0 
v 0.946967661 0.321328759 0.0 
v 0.96275574 0.27037248 0.0 
v -0.124224707 -0.0938658267 0.0 
v 0.0515435189 0.0135892229 0.0 
v 0.0856824145 0.00823040958 0.0 
v -0.999959767 0.00897386484 0.0 
v 0.0248192642 -0.0283457693 0.0 
v -0.0442338549 -0.207784414 0.0 
v -0.143964291 -0.116335481 0.0 
v -0.140226349 -0.0935779437 0.0 
v -0.26211521 -0.278630406 0.0 
v -0.135611862 -0.1085691 0.0 
v -0.146768078 -0.116555467 0.0 
v 0.864866912 0.18549563 0.0 
v -0.138087347 -0.105172344 0.0 
v -0.117259942 -0.0967452526 0.0 
v 0.0685331151 -0.0024285235 0.0 
v -0.951093137 -0.0681062341 0.0 
v -0.898169816 -0.195723638 0.0 
v 0.0247207657 -0.0304242056 0.0 
v 0.0335611999 0.0148353511 0.0 
v -0.134337947 -0.144032434 0.0 
v 0.128094777 0.112094089 0.0 
v -0.144614905 -0.112764977 0.0 
v 0.0558341779 0.344074816 0.0 
v 0.0597428828 -0.0310789496 0.0 
v 0.735035002 0.0660673678 0.0 
v 0.0146799274 0.0893469676 0.0 
v 0.976324499 0.216310993 0.0 
v -0.998550236 -0.0538262464 0.0 
v -0.906742156 -0.308910936 0.0 
v -0.12201795 -0.0967815146 0.0 
v 0.0586710498 0.0032411695 0.0 
v 0.0996795446 -0.0115316994 0.0 
v 0.0884903669 0.340379089 0.0 
v 0.0318391621 -0.0313903503 0.0 
v -0.0216832701 0.0851038843 0.0 
v 0.130643144 0.368116468 0.0 
v -0.12510404 -0.0966748968 0.0 
v -0.135636926 -0.122227296 0.0 
v -0.204306394 -0.315247297 0.0 
v 0.590916395 -0.0251089483 0.0 
v 0.514848292 0.0627164394 0.0 
v 0.110783398 0.129307628 0.0 
v -0.1204587 -0.100589633 0.0 
v 0.0410017446 0.00391363259 0.0 
v -0.109290443 -0.105261356 0.0 
v -0.133395836 -0.0998973921 0.0 
v -0.00395487435 0.279912591 0.0 
v 0.95159173 0.108114608 0.0 
v 0.9883582 0.152144507 0.0 
v -0.974305212 -0.225231782 0.0 
v -0.127251446 -0.0951966494 0.0 
v -0.228625447 0.322486252 0.0 
v -0.130977839 0.357979864 0.0 
v -0.407529116 0.423041165 0.0 
v 0.0568256937 -0.00622886233 0.0 
v 0.0633555278 -0.0167730581 0.0 
v 0.997024775 0.077081725 0.0 
v 0.236848712 0.212920308 0.0 
v -0.133021295 0.186116964 0.0 
v 0.0565431751 0.135401487 0.0 
v -0.0405937545 0.255728602 0.0 
v -0.13252008 -0.106512323 0.0 
v -0.133370906 -0.106290303 0.0 
v 0.0499471053 0.000588164374 0.0 
v 0.043440897 -0.00332866912 0.0 
v 0.0481997356 -0.00765751116 0.0 
v 0.0522476099 -0.0143434135 0.0 
v -0.136466265 -0.0946996883 0.0 
v -0.127955213 -0.100084439 0.0 
v -0.127032354 -0.10271728 0.0 
v 0.0364441052 -0.00454762718 0.0 
v -0.136899009 -0.117870338 0.0 
v -0.215944961 -0.976405501 0.0 
v 0.0324622206 -0.0300994907 0.0 
v 0.0313126519 -0.0303082261 0.0 
v -0.134730667 -0.095766373 0.0 
v 0.0909310579 -0.0825080201 0.0 
v -0.133812174 -0.10412994 0.0 
v 0.0416117869 -0.00894000474 0.0 
v -0.132884532 0.203967527 0.0 
v -0.129635558 -0.133154184 0.0 
v -0.135626078 -0.0970292389 0.0 
v 0.0286034551 -0.00570949586 0.0 
v 0.0529628806 -0.0225940254 0.0 
v 0.396257997 0.316913933 0.0 
v -0.004125698 0.0969111621 0.0 
v -0.134189203 -0.0976536945 0.0 
v 0.0265562758 -0.0286797173 0.0 
v -0.0223036893 0.396116734 0.0 
v -0.128086329 -0.105288818 0.0 
v 0.038041003 -0.026306456 0.0 
v 0.0286996905 -0.0101137375 0.0 
v 0.0250856765 -0.031788297 0.0 
v 0.0241808705 -0.00107451249 0.0 
v -0.13695617 -0.108425498 0.0 
v 0.0451253392 -0.0136922887 0.0 
v 0.0470164977 -0.0191147402 0.0 
v -0.220156074 0.144105092 0.0 
v 0.0276666302 -0.0289560053 0.0 
v -0.133668557 -0.107282251 0.0 
v 0.0278207716 -0.029473329 0.0 
v -0.130888104 -0.103601754 0.0 
v 0.0324892551 -0.00974983536 0.0 
v 0.0395726711 -0.0140495514 0.0 
v 0.0684950575 -0.0688506439 0.0 
v 0.0265546963 -0.0279687606 0.0 
v -0.129215926 -0.103699729 0.0 
v -0.131344795 -0.104715489 0.0 
v 0.0310643688 0.654889882 0.0 
v 0.165714562 0.27823925 0.0 
v 0.0299782287 -0.013228911 0.0 
v -0.0644264743 0.106976487 0.0 
v 0.0421037525 -0.0180485155 0.0 
v -0.0143469041 0.201984301 0.0 
v -0.493062586 0.419120759 0.0 
v -0.0123756984 0.212456107 0.0 
v -0.202740207 -0.246496007 0.0 
v -0.134469077 -0.11162357 0.0 
v -0.132379308 -0.098934859 0.0 
v 0.0264847819 -0.0292368792 0.0 
v -0.372551143 -0.101959303 0.0 
v -0.13608712 -0.112022594 0.0 
v 0.0230801813 -0.0210316703 0.0 
v -0.13203299 -0.104952261 0.0 
v 0.185207695 0.197919846 0.0 
v 0.132022336 0.256211579 0.0 
v 0.0373850986 -0.018717261 0.0 
v 0.0233870335 -0.0117332349 0.0 
v 0.026648337 -0.0124143008 0.0 
v 0.0335739367 -0.0184265543 0.0 
v 0.0402665064 -0.0210082754 0.0 
v -0.214387283 0.113116734 0.0 
v 0.0464030504 -0.0243012421 0.0 
v 0.0767543316 0.371584803 0.0 
v -0.24121739 -0.0271414407 0.0 
v -0.02204662 0.340068668 0.0 
v 0.207637206 0.222352669 0.0 
v 0.0247031432 -0.0145906219 0.0 
v 0.0273427088 -0.0153531497 0.0 
v 0.182914287 0.60055244 0.0 
v -0.124341339 -0.110383682 0.0 
v 0.0320315957 -0.0349253193 0.0 
v 0.0711552575 -0.0406302772 0.0 
v -0.13279219 -0.100834154 0.0 
v -0.038331937 -0.0217260066 0.0 
v -0.367580533 0.427797019 0.0 
v 0.0341637954 -0.0216224715 0.0 
v -0.0625329241 0.080954507 0.0 
v 0.0198724363 -0.0118580516 0.0 
v 0.0256137531 -0.0250603221 0.0 
v -0.123554096 -0.103359751 0.0 
v -0.181175113 0.041874215 0.0 
v -0.19988811 0.062853843 0.0 
v 0.0254963916 -0.0165268853 0.0 
v -0.641844809 0.630269289 0.0 
v 0.0316314474 -0.0200506113 0.0 
v 0.0408943072 -0.023236027 0.0 
v -0.13397187 -0.101315551 0.0 
v 0.268263131 0.63759613 0.0 
v -0.100066952 -0.0916430429 0.0 
v 0.0247059017 -0.0271420795 0.0 
v 0.0188175272 -0.0189013667 0.0 
v 0.413907647 0.853661478 0.0 
v 0.0235828087 -0.0168058481 0.0 
v 0.0249904394 -0.0177341942 0.0 
v 0.0311924182 -0.022288233 0.0 
v -0.0832158104 -0.0796997547 0.0 
v 0.38413462 0.923276961 0.0 
v 0.111998238 -0.287935376 0.0 
v -0.170707569 0.0692327917 0.0 
v 0.0376929678 -0.0233305972 0.0 
v 0.0324148573 -0.0475054346 0.0 
v 0.702363014 0.711818755 0.0 
v 0.120748624 0.17487435 0.0 
v 0.117209174 0.148664907 0.0 
v 0.00307108182 -0.0472181737 0.0 
v 0.0240287557 -0.0181922335 0.0 
v -0.116251118 0.385059565 0.0 
v 0.0249813888 -0.0189953968 0.0 
v -0.143856525 -0.11095567 0.0 
v 0.0288597923 -0.0207082424 0.0 
v -0.109379061 -0.0802229196 0.0 
v 0.0584846251 0.194900826 0.0 
v -0.00636771042 0.227192789 0.0 
v 0.023602033 -0.0215801038 0.0 
v -0.147692919 -0.106897332 0.0 
v 0.0326841697 -0.0246000085 0.0 
v 0.0349865295 -0.0239440296 0.0 
v 0.365802109 0.793212712 0.0 
v 0.0191805474 -0.0210897941 0.0 
v 0.0260019396 -0.0205288418 0.0 
v -0.121667869 -0.143267885 0.0 
v 0.00874837674 -0.0612011179 0.0 
v -0.134463683 -0.1089212 0.0 
v -0.136247575 -0.105566576 0.0 
v -0.214685172 0.342618108 0.0 
v -0.124570392 0.0762365833 0.0 
v -0.0180146191 -0.0393073671 0.0 
v 0.0354051888 -0.026223043 0.0 
v 0.48794511 0.763177276 0.0 
v 0.0132219745 0.262491256 0.0 
v 0.028309511 -0.0225870907 0.0 
v 0.0294857267 -0.0226956736 0.0 
v 0.0444337577 0.373937249 0.0 
v -0.186890438 0.0125910444 0.0 
v 0.0243609101 -0.0201752912 0.0 
v 0.0245511383 -0.0212636515 0.0 
v 0.0316100493 -0.0262930952 0.0 
v 0.0287372991 -0.0238424074 0.0 
v 0.0303296074 -0.0240523983 0.0 
v -0.359518707 0.39613235 0.0 
v 0.0270272028 -0.0221573338 0.0 
v 0.314671278 -0.243925497 0.0 
v -0.0791725963 0.019149892 0.0 
v 0.0329943374 -0.0269590579 0.0 
v 0.0242080111 -0.0221924148 0.0 
v 0.0253702849 -0.0222513545 0.0 
v 0.0307914186 -0.0254177488 0.0 
v 0.0116148563 -0.0303816888 0.0 
v -0.132778525 -0.103735588 0.0 
v -0.0276413094 0.204206362 0.0 
v -0.129869178 -0.0886766762 0.0 
v 0.0313336551 -0.0278157499 0.0 
v 0.0244896282 -0.022903651 0.0 
v 0.0261841621 -0.0233367253 0.0 
v -0.209921658 0.217625007 0.0 
v -0.0178403892 0.267218262 0.0 
v 0.0274375193 -0.0235317554 0.0 
v 0.0290866122 -0.0254703145 0.0 
v 0.0519977286 -0.0520345233 0.0 
v 0.0240415707 -0.0231879782 0.0 
v 0.0277748089 -0.0247172192 0.0 
v 0.0149770509 -0.0726828948 0.0 
v 0.0239907838 -0.0253527779 0.0 
v 0.0271248426 -0.0252041835 0.0 
v -0.132842809 0.149427176 0.0 
v 0.0276704449 -0.0257048905 0.0 
v 0.0302466601 -0.0266729314 0.0 
v 0.0297450554 -0.0291971583 0.0 
v 0.0240538958 -0.0240159947 0.0 
v 0.0243927259 -0.0242271964 0.0 
v 0.0282134973 -0.0263791792 0.0 
v 0.0289291199 -0.0269757006 0.0 
v 0.132273003 -0.357152641 0.0 
v 0.0248607919 -0.0239956453 0.0 
v -0.132418185 -0.105500527 0.0 
v 0.0255479421 -0.0241533071 0.0 
v -0.182328999 0.294493854 0.0 
v 0.0242713485 -0.0247845352 0.0 
v 0.0265921429 -0.0245497674 0.0 
v 0.0280203931 -0.0271314178 0.0 
v -0.130625799 -0.124928832 0.0 
v 0.0247549936 -0.0253822245 0.0 
v 0.024906924 -0.0246005375 0.0 
v 0.0242573861 -0.025904391 0.0 
v 0.0264619738 -0.0258448608 0.0 
v -0.264729381 -0.355444789 0.0 
v -0.114862904 0.183885783 0.0 
v -0.219510585 0.170068905 0.0 
v 0.223506287 0.424981266 0.0 
v 0.0211536307 -0.0176521968 0.0 
v -0.166304365 0.74028343 0.0 
v -0.198234037 0.35345912 0.0 
v 0.4426561 0.657975316 0.0 
v -0.172289386 -0.128331065 0.0 
v -0.0989048705 0.235783696 0.0 
v -0.0976406187 0.284069419 0.0 
v -0.134997234 -0.104037635 0.0 
v -0.115440331 0.335038722 0.0 
v 0.0816413313 -0.0554650761 0.0 
v -0.11688409 0.93143177 0.0 
v -0.173475072 0.984838188 0.0 
v -0.320664376 0.398112565 0.0 
v -0.0790403485 0.25207001 0.0 
v -0.103687383 0.312707692 0.0 
v 0.27466172 0.405269027 0.0 
v -0.0778192431 -0.114362225 0.0 
v 0.0578716658 -0.0432632193 0.0 
v -0.110589661 0.993866205 0.0 
v 0.162443697 0.357008219 0.0 
v -0.155706286 -0.098708041 0.0 
v -0.131601229 -0.105603516 0.0 
v -0.101175845 0.357664853 0.0 
v 0.0372068882 -0.0410793722 0.0 
v -0.00599685591 -0.209706903 0.0 
v -0.0817842335 0.380399257 0.0 
v -0.0879158229 0.3332932 0.0 
v -0.0389508605 0.999241173 0.0 
v 0.0247213617 -0.0338201411 0.0 
v -0.140772924 -0.116306625 0.0 
v -0.133667126 -0.0834787488 0.0 
v 0.0256692357 -0.0288242642 0.0 
v -0.123843335 -0.0698450431 0.0 
v 0.0226357616 -0.0217762068 0.0 
v -0.12549831 -0.0817227215 0.0 
v -0.0906564444 0.166369528 0.0 
v -0.0913238674 0.190598637 0.0 
v -0.0625824556 0.282152295 0.0 
v -0.0746857226 0.354218751 0.0 
v -0.1295017 -0.100004569 0.0 
v 0.0189063456 -0.0384830199 0.0 
v -0.109118395 -0.136687875 0.0 
v -0.0148413274 0.178594992 0.0 
v -0.0703791529 0.183361381 0.0 
v -0.134545967 -0.10781572 0.0 
v -0.115348011 -0.10190317 0.0 
v -0.241799906 0.359077483 0.0 
v -0.264935046 0.349399388 0.0 
v 0.0330824181 0.891613841 0.0 
v 0.0338926762 0.149407953 0.0 
v 0.0203399211 0.146611631 0.0 
v -0.171426147 -0.0896929875 0.0 
v -0.276437193 -0.070240885 0.0 
v -0.172469646 -0.109917574 0.0 
v 0.0269590281 0.999636292 0.0 
v -0.114512324 -0.115742028 0.0 
v 0.130513549 0.295334429 0.0 
v -0.0229058936 0.106833868 0.0 
v -0.116857417 -0.0787694901 0.0 
v -0.0512091033 0.178092867 0.0 
v -0.713215232 0.11731635 0.0 
v 0.0847997963 0.996398032 0.0 
v 0.0157762971 -0.0358244255 0.0 
v -0.0992688909 -0.0799332708 0.0 
v 0.0377180688 -0.0368885025 0.0 
v 0.049532108 -0.0443897955 0.0 
v 0.142081261 0.989854932 0.0 
v 0.0261502508 -0.0456641726 0.0 
v -0.142870232 -0.114125066 0.0 
v 0.130640879 0.957547963 0.0 
v 0.192550987 0.981286943 0.0 
v -0.15031445 -0.105559915 0.0 
v -0.146889254 -0.108919449 0.0 
v 0.0327138901 -0.0286548343 0.0 
v -0.139880866 -0.109417059 0.0 
v 0.0244439766 -0.0288687609 0.0 
v -0.140278354 -0.106765464 0.0 
v -0.0157996062 0.191985801 0.0 
v -0.0317593515 0.182909071 0.0 
v -0.139241263 -0.104431286 0.0 
v 0.250695676 0.968065858 0.0 
v -0.138129503 -0.106250212 0.0 
v -0.14236401 -0.101819403 0.0 
v 0.0815678015 0.253347635 0.0 
v 0.101692557 0.246075869 0.0 
v -0.0465974547 0.367802233 0.0 
v 0.0532232262 -0.0877017677 0.0 
v -0.229993492 0.973192155 0.0 
v -0.127115577 -0.09220054 0.0 
v -0.139466763 -0.101848044 0.0 
v 0.204641506 0.385612965 0.0 
v 0.0508247949 -0.0373283587 0.0 
v 0.0134398108 0.172065228 0.0 
v 0.1652316 0.317350507 0.0 
v -0.135589704 -0.103177883 0.0 
v -0.140193403 -0.108195268 0.0 
v -0.351696759 0.936113954 0.0 
v -0.113581173 0.25428775 0.0 
v -0.128514186 0.279854447 0.0 
v -0.133431405 -0.10239996 0.0 
v -0.134419382 -0.102882624 0.0 
v -0.125060588 0.223198459 0.0 
v -0.134707287 -0.106480159 0.0 
v 0.0218771491 -0.0285284836 0.0 
v -0.143836349 0.332155913 0.0 
v -0.114229195 0.233007208 0.0 
v -0.123461746 -0.106887333 0.0 
v 0.0342191048 -0.0281676129 0.0 
v 0.0662208423 -0.170609087 0.0 
v -0.142751127 0.303033054 0.0 
v -0.147705689 0.256400347 0.0 
v -0.179889843 0.361418962 0.0 
v -0.155228376 0.355042368 0.0 
v -0.119528398 0.299219072 0.0 
v -0.125048727 0.316430897 0.0 
v 0.0268628486 -0.0181506108 0.0 
v 0.0283246581 -0.0291605871 0.0 
v -0.0761547685 0.206439316 0.0 
v -0.107106186 -0.120977499 0.0 
v -0.14203757 -0.109925643 0.0 
v -0.129033312 0.238829046 0.0 
v 0.0247123353 -0.0266381204 0.0 
v 0.0248262063 -0.0261417702 0.0 
v -0.136122912 -0.102785878 0.0 
v -0.0823953971 0.814921379 0.0 
v -0.126863629 -0.107827388 0.0 
v -0.16750294 0.340740025 0.0 
v -0.139218658 -0.106004171 0.0 
v -0.120408021 -0.109506153 0.0 
v -0.13449052 -0.10726627 0.0 
v -0.215866581 0.862349331 0.0 
v -0.332734495 0.869339168 0.0 
v -0.1450423 -0.114663623 0.0 
v -0.291535854 0.956560671 0.0 
v -0.285319358 0.230888158 0.0 
v -0.138585329 -0.0979219154 0.0 
v -0.149878144 0.282116979 0.0 
v 0.243058443 0.0546192527 0.0 
v -0.162547186 0.294627905 0.0 
v -0.135484219 -0.10943117 0.0 
v -0.130491421 -0.118433453 0.0 
v 0.0348822251 -0.0292288028 0.0 
v 0.0215523019 -0.0302676093 0.0 
v -0.31772998 0.300872713 0.0 
v -0.404817969 0.91439718 0.0 
v -0.244471297 0.201017544 0.0 
v -0.142889217 -0.108414322 0.0 
v 0.0346070565 -0.035689611 0.0 
v 0.0383598506 -0.0331407189 0.0 
v -0.169905037 0.316826314 0.0 
v -0.320713401 0.350614786 0.0 
v -0.318005145 0.276298791 0.0 
v -0.272818089 0.200006679 0.0 
v -0.148397639 -0.101687588 0.0 
v 0.23096028 -0.195371211 0.0 
v -0.14543952 -0.106915787 0.0 
v -0.430067331 0.510555148 0.0 
v -0.140647471 -0.103227317 0.0 
v -0.13388738 -0.105876058 0.0 
v -0.152089432 -0.109834768 0.0 
v 0.0368879773 -0.0103643769 0.0 
v -0.332803875 0.374887019 0.0 
v -0.353385657 0.356139332 0.0 
v -0.338617474 0.320908934 0.0 
v -0.337289333 0.292120039 0.0 
v -0.34387207 0.269453913 0.0 
v -0.323145002 0.24153237 0.0 
v -0.305822164 0.205941379 0.0 
v -0.117347814 -0.113383926 0.0 
v -0.254227549 0.183142915 0.0 
v 0.757281184 -0.653088868 0.0 
v -0.127650455 -0.110925652 0.0 
v -0.167579785 -0.15456 0.0 
v 0.737591982 -0.606865585 0.0 
v 0.0457275584 -0.0348144472 0.0 
v 0.868071735 -0.496438622 0.0 
v -0.142557502 -0.134439394 0.0 
v -0.234062076 0.339027762 0.0 
v 0.0310736448 0.00234535499 0.0 
v -0.138095573 -0.111659884 0.0 
v 0.348278016 0.438844234 0.0 
v 0.0297291037 -0.0280649811 0.0 
v -0.368222058 0.293065876 0.0 
v -0.372698903 0.244252414 0.0 
v -0.292539388 0.182947263 0.0 
v 0.0290111005 -0.0288382061 0.0 
v -0.139521688 -0.100439765 0.0 
v -0.809948087 -0.0512346588 0.0 
v -0.140636176 -0.101420052 0.0 
v -0.124768525 -0.0997172371 0.0 
v -0.0331407972 -0.0709325746 0.0 
v -0.123567306 -0.0892450437 0.0 
v -0.146691561 -0.104620673 0.0 
v -0.979191065 0.20294027 0.0 
v -0.245608866 0.160584748 0.0 
v 0.990617394 -0.136663929 0.0 
v -0.145017207 -0.10188663 0.0 
v -0.119803704 -0.105030924 0.0 
v 0.0221755393 -0.0207293928 0.0 
v -0.188655093 0.338256538 0.0 
v -0.257454693 0.10927932 0.0 
v -0.237613767 -0.135995209 0.0 
v -0.242511839 -0.0841811523 0.0 
v 0.927675128 -0.373387128 0.0 
v 0.0182842538 -0.00977934897 0.0 
v -0.060518492 0.705614924 0.0 
v -0.133446604 -0.106881909 0.0 
v -0.396278679 0.363928258 0.0 
v -0.112458423 -0.0896978602 0.0 
v -0.271892548 0.171807066 0.0 
v 0.0229457077 -0.0182345118 0.0 
v 0.0303672869 -0.0172075629 0.0 
v -0.137159958 -0.10592372 0.0 
v -0.134598643 -0.105180524 0.0 
v -0.149129823 -0.108470909 0.0 
v -0.407289267 0.27657932 0.0 
v -0.316670924 0.178345025 0.0 
v -0.295493424 0.158636272 0.0 
v -0.136817083 -0.104536511 0.0 
v 0.0404013321 -0.025587216 0.0 
v -0.161052346 -0.10146872 0.0 
v -0.107088596 -0.116193585 0.0 
v 0.0241027102 -0.0282775555 0.0 
v 0.271399736 0.109861434 0.0 
v -0.405405253 0.317781419 0.0 
v -0.344440281 0.201928705 0.0 
v 0.0115550403 0.00702995341 0.0 
v -0.138624653 -0.10689123 0.0 
v -0.134110764 -0.110094368 0.0 
v -0.172745466 -0.0768952593 0.0 
v 0.231101349 -0.103327662 0.0 
v -0.847128987 0.135467157 0.0 
v -0.263145149 -0.443935245 0.0 
v -0.166296825 -0.119290359 0.0 
v -0.436280161 0.228323504 0.0 
v -0.385642886 0.198882878 0.0 
v -0.318464816 0.156428248 0.0 
v -0.136887446 -0.0913985297 0.0 
v -0.289588511 0.136578888 0.0 
v 0.0236899797 -0.023170609 0.0 
v 0.0435049832 0.116264306 0.0 
v -0.0340236798 0.424601883 0.0 
v -0.138789117 -0.102909945 0.0 
v -0.137128994 -0.103457205 0.0 
v -0.139422223 -0.107133046 0.0 
v -0.138796002 -0.107809089 0.0 
v -0.138970241 -0.108956009 0.0 
v -0.152607515 -0.178034663 0.0 
v 0.0238402467 -0.0234523416 0.0 
v -0.441310704 0.380761564 0.0 
v -0.434419632 0.343277007 0.0 
v -0.453840077 0.299473405 0.0 
v 0.022182513 -0.0335605182 0.0 
v -0.363836765 0.180358499 0.0 
v 0.0330184773 -0.0389868058 0.0 
v -0.135358736 -0.0994670242 0.0 
v -0.147862151 -0.150667101 0.0 
v -0.14358373 -0.107249424 0.0 
v -0.145918295 -0.111058563 0.0 
v -0.137682334 -0.102821805 0.0 
v 0.023366442 -0.0229401831 0.0 
v 0.0236434359 -0.0191912092 0.0 
v -0.547808945 0.51710403 0.0 
v -0.0151274828 -0.0617455132 0.0 
v -0.475263417 0.35444057 0.0 
v -0.414602935 0.18200013 0.0 
v -0.308629841 0.138822898 0.0 
v -0.274963766 0.11839442 0.0 
v -0.05886399 -0.0291529801 0.0 
v 0.029718766 -0.0341905951 0.0 
v 0.0308571104 -0.0327685177 0.0 
v -0.130446419 -0.11104618 0.0 
v -0.138008595 -0.108419359 0.0 
v 0.0243780427 -0.0263675563 0.0 
v -0.381998509 0.156434149 0.0 
v -0.328264475 0.142148659 0.0 
v -0.298187643 0.121516347 0.0 
v -0.000988440239 -0.0699557289 0.0 
v 0.333659679 0.21826759 0.0 
v 0.339019597 0.155829296 0.0 
v -0.181234658 -0.101471692 0.0 
v -0.141083017 -0.111062407 0.0 
v -0.137556866 -0.107259631 0.0 
v 0.023763638 -0.0208538938 0.0 
v -0.449822217 0.172952741 0.0 
v -0.406820148 0.12357945 0.0 
v 0.0432564057 -0.0217089783 0.0 
v -0.131984144 -0.103342041 0.0 
v 0.0163233131 -0.0281358045 0.0 
v -0.141352132 -0.110095866 0.0 
v -0.499528885 0.257483274 0.0 
v -0.150957435 -0.115037255 0.0 
v -0.266411483 0.0925591886 0.0 
v -0.171044275 0.184925184 0.0 
v -0.137739301 -0.101243131 0.0 
v -0.141227558 -0.114075914 0.0 
v -0.176518008 -0.210092306 0.0 
v -0.165240467 -0.238872141 0.0 
v 0.0416340679 -0.0346597061 0.0 
v -0.133233756 -0.11243929 0.0 
v 0.135296494 -0.0706524476 0.0 
v -0.135714069 -0.101926088 0.0 
v 0.834575593 0.550893068 0.0 
v -0.518693507 0.318428487 0.0 
v -0.506815612 0.194963634 0.0 
v -0.151279926 -0.343477398 0.0 
v -0.419270992 0.153407305 0.0 
v -0.346418083 0.106267259 0.0 
v 0.760263145 0.498581707 0.0 
v -0.132654786 -0.102808498 0.0 
v 0.0257792026 -0.00946615078 0.0 
v -0.236638069 -0.886091053 0.0 
v -0.137957692 -0.103888184 0.0 
v -0.207625315 -0.0714727268 0.0 
v 0.0116041014 -0.0229274984 0.0 
v -0.587314427 0.313652575 0.0 
v -0.530885696 0.235682487 0.0 
v -0.141180903 -0.0997656882 0.0 
v -0.373365939 0.115381598 0.0 
v -0.321780264 0.117629014 0.0 
v -0.295975953 0.0961565301 0.0 
v -0.280842423 0.0627178177 0.0 
v -0.163945571 0.0981444567 0.0 
v -0.132224873 -0.100083672 0.0 
v -0.4788526 0.146951705 0.0 
v -0.474545836 0.103845417 0.0 
v -0.303842306 0.0754623488 0.0 
v -0.247248933 0.0697894245 0.0 
v 0.0212003496 -0.0249954145 0.0 
v -0.148663029 -0.111143015 0.0 
v -0.156052247 -0.105572924 0.0 
v -0.14825356 0.187060937 0.0 
v -0.150720611 0.0658954084 0.0 
v -0.153602779 0.0463718772 0.0 
v -0.140696764 -0.109395102 0.0 
v 0.0257104896 -0.0295347124 0.0 
v 0.0264792275 -0.0270678215 0.0 
v 0.039598193 -0.1515847 0.0 
v -0.566540003 0.222254992 0.0 
v 0.0170192681 -0.0013032275 0.0 
v -0.325803816 0.0848166645 0.0 
v 0.310501397 0.875436604 0.0 
v -0.00109135557 -0.054659266 0.0 
v -0.141711503 0.0217676982 0.0 
v -0.77267617 -0.519353509 0.0 
v 0.0131810363 -0.025161434 0.0 
v -0.15316017 0.0796626955 0.0 
v -0.164883092 0.129800349 0.0 
v -0.66317296 0.290343165 0.0 
v -0.15145494 0.152247116 0.0 
v -0.572647989 0.165133893 0.0 
v 0.235705957 0.555109322 0.0 
v -0.33790493 0.0602089465 0.0 
v -0.730722606 -0.236191586 0.0 
v -0.258107007 0.0500499606 0.0 
v -0.754755795 -0.416230589 0.0 
v -0.102427945 -0.126748294 0.0 
v -0.0730813295 -0.0660061389 0.0 
v -0.0961726308 -0.0397709571 0.0 
v 0.0350724682 0.249360412 0.0 
v -0.541504085 -0.556167841 0.0 
v 0.0207772292 -0.019960355 0.0 
v 0.01533347 -0.00795584545 0.0 
v -0.637246311 0.209055156 0.0 
v 0.0102336379 -0.019733401 0.0 
v -0.429355621 0.0916839093 0.0 
v -0.393818557 0.0924996734 0.0 
v -0.111970991 0.0545578711 0.0 
v 0.0449410044 0.22639364 0.0 
v -0.181931615 -0.0620319918 0.0 
v 0.0231516045 -0.0261979103 0.0 
v -0.143414691 -0.0998400003 0.0 
v -0.377301186 -0.708702624 0.0 
v -0.809375167 -0.190955371 0.0 
v -0.111434229 -0.0275959857 0.0 
v -0.592155814 -0.805823326 0.0 
v -0.712779164 -0.59579438 0.0 
v 0.0273200031 -0.0275532696 0.0 
v 0.543413043 0.83946532 0.0 
v -0.0529342107 -0.0551791936 0.0 
v -0.519967973 0.130926773 0.0 
v -0.449595541 -0.813878298 0.0 
v -0.451247364 -0.44039607 0.0 
v -0.312746942 0.0581583567 0.0 
v -0.132917047 -0.0977924541 0.0 
v -0.130226061 -0.105235822 0.0 
v -0.0156457666 -0.0300574116 0.0 
v 0.0837410465 0.171701342 0.0 
v 0.103034079 0.590703726 0.0 
v -0.629706502 -0.0650975555 0.0 
v -0.131676614 -0.101072401 0.0 
v -0.129846737 -0.101654984 0.0 
v -0.0211679116 0.162686929 0.0 
v 0.0527024455 -0.064460896 0.0 
v -0.0422080532 0.0951082855 0.0 
v -0.0219299812 0.127840906 0.0 
v -0.672545135 -0.416072994 0.0 
v -0.578198791 -0.137893409 0.0 
v -0.358803898 0.0476461127 0.0 
v 0.0694157705 0.293186635 0.0 
v -0.21993722 0.0822150335 0.0 
v -0.193815097 0.136107206 0.0 
v -0.297876358 0.0351549573 0.0 
v 0.0238030702 -0.0238031466 0.0 
v 0.00683826162 -0.00511376653 0.0 
v -0.380914986 -0.211883381 0.0 
v -0.809061527 -0.30200541 0.0 
v -0.360379726 -0.932805598 0.0 
v -0.293928951 -0.955827177 0.0 
v 0.0515501872 -0.349829137 0.0 
v -0.192460686 0.0898270011 0.0 
v -0.136558369 -0.110472225 0.0 
v 0.00998754427 -0.0265622344 0.0 
v -0.0826598853 -0.0258066226 0.0 
v -0.14036499 -0.110290207 0.0 
v -0.697019577 -0.0881997943 0.0 
v -0.65523845 -0.167057022 0.0 
v -0.560459912 -0.219580516 0.0 
v 0.0198289696 -0.0238573849 0.0 
v -0.330211788 0.0305893943 0.0 
v -0.264530361 0.024411764 0.0 
v -0.0969326794 -0.0250935443 0.0 
v 0.0137965791 -0.0278594196 0.0 
v 0.105842568 0.361454695 0.0 
v -0.0313140266 -0.00150434265 0.0 
v -0.720099092 -0.334695399 0.0 
v -0.633410513 -0.3029764 0.0 
v -0.884887993 0.0171022322 0.0 
v -0.4943358 -0.149561122 0.0 
v -0.42494297 -0.905220032 0.0 
v -0.142563567 -0.0971529931 0.0 
v -0.576241732 -0.42643261 0.0 
v -0.145947754 -0.0985753238 0.0 
v -0.460245341 0.0460896753 0.0 
v -0.0421659797 0.119023196 0.0 
v -0.366351634 0.0155787878 0.0 
v -0.115077503 0.100672588 0.0 
v -0.086777322 0.0919142738 0.0 
v -0.482836664 -0.875710309 0.0 
v -0.524774969 -0.71563977 0.0 
v -0.640177011 -0.522177398 0.0 
v -0.518566132 -0.320804626 0.0 
v -0.139711246 0.0906058103 0.0 
v -0.152147576 -0.101835229 0.0 
v -0.710586607 -0.493925691 0.0 
v -0.535209417 -0.84471935 0.0 
v 0.0208076052 -0.0274540707 0.0 
v -0.00461565191 0.264447004 0.0 
v -0.14185831 0.135606021 0.0 
v 0.0163736157 -0.0119435182 0.0 
v -0.571203768 0.0993158594 0.0 
v 0.0242156107 -0.0268121008 0.0 
v -0.35250774 -0.83327812 0.0 
v 0.693444729 0.577241123 0.0 
v -0.627405524 -0.644670606 0.0 
v -0.336748511 -0.00251885829 0.0 
v 0.0193979256 -0.0276730359 0.0 
v 0.0198424663 -0.0260239691 0.0 
v -0.335832983 -0.601890147 0.0 
v -0.245246291 -0.554133952 0.0 
v -0.134033114 -0.106993295 0.0 
v -0.86345166 -0.504431486 0.0 
v 0.0099623166 0.142528266 0.0 
v -0.0150525132 -0.077794455 0.0 
v -0.429178357 -0.587691605 0.0 
v -0.135893181 -0.104006007 0.0 
v -0.634113908 0.13428691 0.0 
v -0.515742183 0.0753502622 0.0 
v -0.0551601164 0.0328756869 0.0 
v 0.0430629142 -0.0404710248 0.0 
v -0.346956134 -0.0645927712 0.0 
v -0.0409762226 0.165525988 0.0 
v -0.14169243 -0.108977161 0.0 
v 0.0235537179 -0.026925778 0.0 
v 0.165602744 0.168437481 0.0 
v 0.0974724069 0.274738044 0.0 
v -0.826175809 -0.563412249 0.0 
v -0.133889049 -0.106504343 0.0 
v -0.320281714 -0.31305182 0.0 
v -0.323992312 -0.0335947089 0.0 
v -0.131851628 -0.0346572511 0.0 
v -0.130729288 -0.0601171926 0.0 
v -0.628802836 0.0446285643 0.0 
v -0.130919531 0.0411511771 0.0 
v -0.135416716 0.0597746707 0.0 
v -0.131634012 -0.0765823498 0.0 
v -0.288689315 -0.0394507013 0.0 
v -0.407027185 -0.296251625 0.0 
v -0.104530059 0.0773734748 0.0 
v -0.00490731699 0.0493158214 0.0 
v -0.135670468 -0.104848988 0.0 
v -0.142867655 -0.109704785 0.0 
v 0.000110175184 0.00572451111 0.0 
v -0.555948079 0.0455687903 0.0 
v -0.512541711 0.0263549779 0.0 
v 0.0185129065 0.0180958044 0.0 
v -0.43466121 -0.209755093 0.0 
v -0.483010054 -0.239190608 0.0 
v 0.89761287 -0.440784484 0.0 
v 0.00683409488 -0.0131467553 0.0 
v 0.00498147821 -0.0190121643 0.0 
v -0.00129319064 0.0744285434 0.0 
v -0.479323059 -0.0174281225 0.0 
v 0.00433499133 -0.0255413055 0.0 
v 0.00715289498 -0.0313089862 0.0 
v 0.0564269014 0.162713394 0.0 
v -0.34180671 -0.392072111 0.0 
v -0.185898349 0.113399148 0.0 
v 0.00170847331 0.424358219 0.0 
v -0.551450014 -0.0178057179 0.0 
v -0.12347354 -0.11765416 0.0 
v -0.157419607 -0.113224626 0.0 
v 0.0433580093 0.27468133 0.0 
v -0.0119941095 -0.0477790534 0.0 
v -0.0284976922 -0.0493520722 0.0 
v 0.023373479 -0.0223627985 0.0 
v -0.178747907 -0.0373762995 0.0 
v -0.135469049 -0.105766654 0.0 
v 0.02466527 -0.0277661216 0.0 
v 0.195651948 0.175212532 0.0 
v -0.0630315468 0.13283582 0.0 
v -0.123055764 -0.124751441 0.0 
v 0.0193936229 -0.0224394612 0.0 
v 0.874476612 -0.295985371 0.0 
v 0.0223835018 -0.0264308304 0.0 
v 0.0228646975 -0.0269232355 0.0 
v 0.00472459942 -0.0394981243 0.0 
v 0.0110716345 -0.0495878495 0.0 
v -0.386154115 -0.0560658164 0.0 
v -0.164568409 0.024907181 0.0 
v 0.0243264791 -0.0236203503 0.0 
v -0.111895666 0.0232837833 0.0 
v -0.0974639654 -0.00720061688 0.0 
v -0.00389921037 0.0296619255 0.0 
v 0.0041991421 0.0181216188 0.0 
v 0.0343220644 -0.0145348655 0.0 
v -0.109860636 -0.0704302713 0.0 
v -0.285632163 -0.110116214 0.0 
v 0.128854141 0.795916855 0.0 
v 0.025157487 -0.0279222876 0.0 
v -0.139771864 -0.120312624 0.0 
v 0.1075994 0.391554475 0.0 
v -0.308372855 -0.069838129 0.0 
v -0.329137802 -0.158660978 0.0 
v 0.0101372264 0.0614662208 0.0 
v 0.073018387 -0.0270109829 0.0 
