v -0.08799272885451324 -0.3633942952073937 0.0 
v 0.02345051077046513 0.052434654207498224 0.0 
v 0.025770840157661172 0.047785464745041174 0.0 
v 0.01644253024151751 -0.048746841599240566 0.0 
v -0.5653490014811058 0.25949412865007804 0.0 
v 0.016225279172757963 -0.06882546880042062 0.0 
v 0.018447929154464554 -0.15840533383100464 0.0 
v -0.10520917670008405 0.016381883810173418 0.0 
v 0.021519727576761353 0.011065798170097743 0.0 
v 0.023559589532417324 -0.1278607816066617 0.0 
v 0.022482060873299247 0.021274417003648325 0.0 
v -0.048615219692134386 -0.0647370319158987 0.0 
v -0.05220713471715104 -0.0916724801663885 0.0 
v -0.002380842029304573 -0.05413561417129278 0.0 
v 0.03606133542419905 -0.022705096099925347 0.0 
v 0.022453638802496265 0.0254399609396633 0.0 
v 0.02416145787674715 0.027373463189008622 0.0 
v 0.04550641919224611 0.07036330228693934 0.0 
v 0.13090985361179897 -0.12155901424902354 0.0 
v 0.03656626866133501 -0.17562923936456207 0.0 
v 0.061810922250922884 -0.40806560977969675 0.0 
v -0.07440717427537664 -0.4563493895522903 0.0 
v 0.0489369409816572 -0.21222061695761454 0.0 
v 0.02115948893202342 -0.21348295157679845 0.0 
v -0.00800563436183952 -0.21417082764248901 0.0 
v -0.012304505951737753 -0.2433717501033458 0.0 
v -0.11716234578049181 0.05080815476200118 0.0 
v 0.1208633958912704 -0.11836392802394964 0.0 
v 0.09552182545677448 -0.1280552170604072 0.0 
v 0.042847283511280046 0.04978140308932947 0.0 
v 0.016412363948815255 0.018640605512955166 0.0 
v 0.019195526215809264 0.02366013310088417 0.0 
v -0.3764124909063106 0.24878025081666372 0.0 
v 0.03071274578644092 0.0048031523191036 0.0 
v 0.018559744239403927 0.018227833078533952 0.0 
v 0.11924087495911066 -0.12257693218053745 0.0 
v -0.03012578431345075 -0.021729718382739852 0.0 
v -0.018000141788476053 -0.03649534529341805 0.0 
v -0.15894335850418473 -0.005566980251687587 0.0 
v 0.11557846011106598 -0.11708352608290337 0.0 
v 1.0 0.0 0.0 
v -0.6211628405513316 0.3706094286028262 0.0 
v -0.13794460962697913 0.005156524184837932 0.0 
v 0.1123089045436747 -0.11575121888675849 0.0 
v 0.013213428516033047 0.01971834324414599 0.0 
v 0.10769679192335488 -0.10742198974820372 0.0 
v 0.020847049363142654 0.02668993764573199 0.0 
v 0.020976950635101188 0.026340714080729473 0.0 
v 0.017170910726418097 0.01712364978105286 0.0 
v 0.10495991781526412 -0.1225742786754815 0.0 
v 0.021603926803716825 0.02589834978850746 0.0 
v 0.11938574404667843 -0.11915319744165814 0.0 
v 0.06980074665379167 -0.193933900429818 0.0 
v -0.11537791156717218 -0.020221713731654507 0.0 
v 0.10993616174669885 -0.11759286981998822 0.0 
v -0.2801107490490983 -0.41151928223518686 0.0 
v 0.7507259232087008 -0.6606137965728871 0.0 
v 0.7982294880756281 -0.6023534546813196 0.0 
v 0.045068611704977 0.0033606406102004304 0.0 
v -0.1955197011788663 -0.580376139896783 0.0 
v 0.02438269169277579 0.02127082462784467 0.0 
v 0.012917556003478319 0.002568795174494477 0.0 
v 0.020308476496204375 0.026146546583490044 0.0 
v -0.36274989675942804 0.15173779380703617 0.0 
v 0.1421380855445513 -0.12405092501625133 0.0 
v -0.11925829262511527 0.17101661845228416 0.0 
v 0.1419905837962506 -0.16588362241726431 0.0 
v -0.14477794375618763 -0.9894641716614757 0.0 
v -0.15014350408714272 -0.08209614464270706 0.0 
v 0.025085306719861117 0.03729996106801119 0.0 
v 0.022224845112723022 0.026352429393348767 0.0 
v -0.21596364457287903 -0.2927942215102315 0.0 
v -0.3082373418067122 -0.07232166768653459 0.0 
v 0.12818188372490683 -0.12691228726300896 0.0 
v 0.104145006949246 -0.106497828271913 0.0 
v 0.07806087741501062 -0.21955210488923302 0.0 
v 0.07213732578781604 -0.152771385293359 0.0 
v -0.0955672936619613 -0.15426565772263473 0.0 
v 0.11554718040525579 0.1589470299008509 0.0 
v 0.10248995918734415 -0.10370502883271208 0.0 
v -0.10955115227234333 -0.10469000544318709 0.0 
v -0.06730745043816334 -0.2526479171376494 0.0 
v 0.12417287002984248 -0.12180322936184318 0.0 
v -0.824465707438293 0.5659119165190596 0.0 
v 0.13409401200419818 -0.48946000432128844 0.0 
v 0.02824433490096581 0.02315101424868226 0.0 
v 0.026451088808360154 0.021717559106341638 0.0 
v -0.13352019249817934 -0.0988694229435497 0.0 
v -0.20707887792342605 -0.06774195947093725 0.0 
v 0.1105572938043245 -0.1208505853843169 0.0 
v -0.14226974238145934 0.4099696649284194 0.0 
v 0.1079360294723104 -0.12080936168090317 0.0 
v -0.4518145697615778 0.12520459475418158 0.0 
v -0.41774450417448883 -0.37593566636862114 0.0 
v 0.14682995217551809 -0.10135986805952008 0.0 
v 0.26404663434548653 -0.051243173049100164 0.0 
v 0.24326967423706414 -0.9699586927269598 0.0 
v 0.21692652812631447 -0.0641761987481482 0.0 
v 0.01982730191012141 0.025305180477735573 0.0 
v -0.32991585798933776 -0.312340693696808 0.0 
v -0.34881589669240426 -0.33263315522469766 0.0 
v -0.38519819696098606 -0.3502237046261423 0.0 
v 0.11791469134879268 -0.11860907993813792 0.0 
v -0.42935043477471796 -0.32740567375186763 0.0 
v 0.12453594130499025 -0.12045137163929513 0.0 
v 0.024640435046456504 0.026509291274878843 0.0 
v -0.8923448714838568 0.0709533936193169 0.0 
v 0.1296222622386876 -0.11920788989373755 0.0 
v 0.04975176119823438 -0.1899913603117489 0.0 
v -0.347484633574367 -0.30389634753837064 0.0 
v -0.012681376185262964 -0.014809998310363743 0.0 
v -0.3790695993404548 -0.30608952313855836 0.0 
v -0.5463355499367885 -0.3298471659966352 0.0 
v -0.032751687175472846 -0.07858601584046851 0.0 
v 0.042602939490217394 -0.036006351072929765 0.0 
v 0.024695104201491524 0.03062969289805508 0.0 
v -0.12391582883731056 -0.7637713525753229 0.0 
v -0.35435876762648755 -0.28274544868955664 0.0 
v 0.008584394134984378 -0.23473110644462936 0.0 
v 0.5039940434891103 -0.8637071286770167 0.0 
v -0.4100272496414226 -0.28308731900032835 0.0 
v -0.48254825992902867 -0.31794246215113875 0.0 
v -0.6271988282961629 -0.3013714206413959 0.0 
v 0.5355155528674467 -0.7815839717718299 0.0 
v 0.03705540350455873 -0.002099713141431258 0.0 
v -0.4118611515662337 -0.25137267080581815 0.0 
v -0.4516030464129072 -0.2679337141664515 0.0 
v -0.5061900815569913 -0.2738984300289055 0.0 
v -0.6257775467747652 -0.21064217535305912 0.0 
v -0.6960072155386138 0.45841278508384575 0.0 
v 0.023290778875096552 0.019076916778570728 0.0 
v -0.13341880560448557 -0.021973873843519908 0.0 
v -0.558972938477018 -0.24941745662950204 0.0 
v 0.020839866405993553 0.025536015934889706 0.0 
v 0.13452460459868734 -0.11722146360602655 0.0 
v 0.12377740244349683 -0.11916997711677194 0.0 
v 0.020876609095730497 0.01737637765353936 0.0 
v -0.41105221349752086 0.0999344832600318 0.0 
v -0.341724542881666 -0.25543344268967505 0.0 
v -0.37825201611279907 -0.26263501313894577 0.0 
v 0.0006416455282742825 0.2780746326338027 0.0 
v -0.3610528904620317 -0.23398747215162177 0.0 
v 0.1303192016220949 -0.1241843707709106 0.0 
v 0.024197317651646268 0.02538467678731123 0.0 
v 0.02109168069561511 0.02684907412437604 0.0 
v 0.021577410919478682 0.02661807015270201 0.0 
v -0.2861460782771106 -0.24021968638576346 0.0 
v -0.2475201871971585 -0.22305111677750802 0.0 
v -0.2529691054664433 -0.20182806488734117 0.0 
v -0.5568450112681865 -0.17639419655621705 0.0 
v 0.032556262874707684 0.033824905014152966 0.0 
v 0.028824584637365626 0.03812184075761508 0.0 
v -0.20978535386337838 -0.2014562879343908 0.0 
v -0.23392073206387448 -0.20672124915865975 0.0 
v -0.2020268760813976 -0.2246615774935967 0.0 
v -0.3601272570844357 -0.20157111743199566 0.0 
v -0.3896699112712975 -0.22572921549706257 0.0 
v -0.13816428757484484 0.06711834212352666 0.0 
v -0.3726014319292138 0.19560918607648092 0.0 
v -0.5137541774544304 0.3752431007290459 0.0 
v -0.3308290616073489 -0.354887549826213 0.0 
v 0.011595850702402483 0.12701817742081423 0.0 
v -0.5429467424419209 -0.11718751240471303 0.0 
v 0.02616770481739439 0.02703790548871686 0.0 
v -0.6065483013233268 -0.12707466641909593 0.0 
v 0.024295584287446544 0.03163898310786794 0.0 
v -0.42975353439274233 -0.21747809222630274 0.0 
v -0.5153339255628736 -0.14969201733013207 0.0 
v -0.2621770686935972 -0.2377432390141529 0.0 
v -0.2433644401205134 -0.2455392396035993 0.0 
v -0.22388791084941728 -0.2280327522201226 0.0 
v -0.18107713565137065 -0.21411085430846316 0.0 
v -0.31966757532544937 0.056558551675869644 0.0 
v 0.020771693644309305 0.024422396449164226 0.0 
v 0.1389459729823993 -0.09595069661161199 0.0 
v -0.3823005757102502 -0.3904021284547954 0.0 
v 0.07110266238252631 -0.35597309007070016 0.0 
v -0.4718262910180674 0.48705990196870386 0.0 
v 0.02301453371481712 -0.0022644664917627483 0.0 
v -0.509084760579312 -0.11868079828003679 0.0 
v -0.15060487352392166 -0.022745474779119302 0.0 
v -0.39697261800954275 -0.18733092722769146 0.0 
v -0.43692386606725897 -0.16815067445999313 0.0 
v -0.47630250049573536 -0.13184622820889383 0.0 
v 0.09070458786709724 -0.13597381670503011 0.0 
v -0.4792621869637379 -0.39062732681183354 0.0 
v 0.06675163957213769 -0.12608109562621325 0.0 
v -0.11575533020493084 -0.1352019106259029 0.0 
v 0.033558381239961334 -0.19565887785046088 0.0 
v -0.26781825570467854 0.12967986887688973 0.0 
v 0.5432121385058384 -0.2773175786103888 0.0 
v -0.20634545598235612 -0.24371437802274312 0.0 
v -0.18521509411148743 -0.18500376961011503 0.0 
v 0.09996595435347896 -0.10716488665950258 0.0 
v -0.15078887290948467 -0.15662223074868872 0.0 
v -0.5017558738167182 -0.07599743517640821 0.0 
v 0.34998011713697036 0.845145852157625 0.0 
v -0.02964561355772956 -0.22931942213755913 0.0 
v 0.012186313580978127 0.016644380825590884 0.0 
v -0.4601396280608767 -0.038835512188216625 0.0 
v 0.02468309284370787 0.033989010108960056 0.0 
v 0.014886316649640586 0.011517522241499482 0.0 
v 0.1308606085815916 0.1909677249567579 0.0 
v -0.5049031891915383 0.014595022747417405 0.0 
v -0.13063101833231708 -0.2196345344915661 0.0 
v -0.45080171384653606 -0.08474105723402649 0.0 
v -0.07482704401478195 0.0073845471462716476 0.0 
v 0.03132258834261807 0.0235500551513529 0.0 
v 0.02292599476948056 0.042886737940404075 0.0 
v -0.14102289568899282 -0.036240283097596075 0.0 
v 0.14378823957270348 -0.131552298632692 0.0 
v 0.1739328706397942 -0.10864868836134481 0.0 
v 0.08627282878972346 -0.12597713792272258 0.0 
v -0.27594049920374375 0.03523300385048517 0.0 
v 0.12221819231992492 -0.12873827691234876 0.0 
v -0.4472077743019049 0.06586058506320903 0.0 
v -0.49125333348447076 0.09425038525096467 0.0 
v -0.13704784288108549 0.2828199431008468 0.0 
v -0.13077515620197946 -0.11692247597043726 0.0 
v -0.3070737129856263 -0.0417292962538318 0.0 
v -0.4287267505682349 -0.12131026378086045 0.0 
v -0.2242523306372426 -0.2510854165503603 0.0 
v -0.14908201515485986 -0.17713779790993806 0.0 
v 0.020326680817745923 0.020309646940254607 0.0 
v -0.2155489470667657 0.4830487022282638 0.0 
v -0.3982971799080842 -0.14658718411541058 0.0 
v -0.5681125821011079 -0.055285960666388176 0.0 
v 0.297795322377096 -0.9546297428690987 0.0 
v -0.25545717866733686 0.02668580444234035 0.0 
v -0.12769062189623967 0.9918140476317885 0.0 
v 0.046220726432490256 0.18806898474148911 0.0 
v -0.022613296158447406 0.7524179493532044 0.0 
v 0.017402490631000803 0.16603979306546218 0.0 
v 0.14721785982957264 0.13482418623381262 0.0 
v 0.3340126485974014 0.7424857493247717 0.0 
v 0.24116386643622342 0.8027312193422993 0.0 
v 0.02608424660373466 0.0317829112094488 0.0 
v 0.13183889394031365 -0.11863797288243139 0.0 
v -0.27681162974639645 -0.28233579877305265 0.0 
v -0.2650527718840983 -0.2614639965227212 0.0 
v -0.2974346965141485 -0.5527593014689642 0.0 
v -0.21036747477235893 -0.2662817963686055 0.0 
v -0.1672435330939447 -0.2412501545650026 0.0 
v 0.14215815996536862 -0.31294139888239986 0.0 
v -0.2332521879227797 -0.01515541585068468 0.0 
v 0.061982416001378014 0.0427858341800007 0.0 
v 0.022133754845122502 0.04652288091733725 0.0 
v 0.13781703017636204 -0.13277405885388954 0.0 
v 0.13138009417755747 -0.1312956073743628 0.0 
v -0.8761787958818232 0.481986221428661 0.0 
v -0.7549116280628522 0.6558265272276609 0.0 
v -0.23257001961317014 0.08902534497638578 0.0 
v -0.22065916261396837 0.12490809335887396 0.0 
v -0.32207259967370466 -0.0978833161457588 0.0 
v -0.7062804730013712 0.707932124894018 0.0 
v -0.1618402885516332 0.07875073584817782 0.0 
v 0.023324380081959258 0.024626945927885547 0.0 
v 0.6309511357972337 0.6321417712521368 0.0 
v -0.29714447442221914 -0.2914678097111285 0.0 
v -0.25892029981201686 -0.28461709155329473 0.0 
v -0.2372963714615671 -0.27185891653673094 0.0 
v -0.1884996194932553 -0.2562311105215102 0.0 
v -0.29589791832801915 -0.11527875047368386 0.0 
v 0.03634799298305349 0.03302896058006191 0.0 
v -0.31339254231972885 -0.0013305402030511133 0.0 
v -0.1036863464800725 0.03432163623998887 0.0 
v 0.12805147156118077 -0.10642482197777692 0.0 
v -0.2959206508447171 -0.31531470197265965 0.0 
v -0.2431536384318605 -0.3012306536483041 0.0 
v -0.20692862534312614 -0.17242578877584225 0.0 
v -0.1347903633213211 -0.19522280896811287 0.0 
v -0.31530575630073543 -0.3321181869284784 0.0 
v 0.12268381133311279 -0.11465643117141315 0.0 
v 0.12519874732386121 -0.11586098138291073 0.0 
v 0.12891059581856987 -0.1160947982578295 0.0 
v 0.1218116341124207 -0.1185305306757234 0.0 
v -0.13507844316180656 0.01938273414499447 0.0 
v -0.24663847329559757 0.14455667123840868 0.0 
v 0.7110350355421519 -0.703156581588746 0.0 
v 0.11603851824538979 -0.13657099681448698 0.0 
v 0.04636562549436655 -0.150235476196289 0.0 
v 0.12747899171654226 -0.11685311913199689 0.0 
v 0.13198765135619364 -0.11210924667309266 0.0 
v 0.1074927192083748 -0.17446119969115814 0.0 
v 0.12592508189194898 -0.11719803128654252 0.0 
v -0.49621017085078 0.23489849185925848 0.0 
v -0.1898474264868529 -0.2820067350700563 0.0 
v 0.02702502901092184 0.031273720831698784 0.0 
v 0.12838936542570697 -0.1484600496720662 0.0 
v 0.2805929857046964 0.9240764002291029 0.0 
v 0.01061327403915182 0.013391814489015674 0.0 
v 0.03695934379699489 0.028369582105121804 0.0 
v 0.12467667777061522 -0.11671691005883847 0.0 
v 0.12722836777737917 -0.11798290353901689 0.0 
v 0.019977995527514097 0.02790852744230355 0.0 
v 0.13460251990081454 -0.4227854842080794 0.0 
v 0.2027472115495988 -0.3852852400915392 0.0 
v 0.1133665252924215 -0.11770010960931482 0.0 
v 0.11636380466972317 0.0886801796695541 0.0 
v 0.051039430600730254 0.050932910222267966 0.0 
v -0.27662676411119463 0.15950940342137043 0.0 
v 0.12634282856720544 -0.12263769136358636 0.0 
v -0.7330345890924587 -0.5392881245680975 0.0 
v -0.707386794600617 -0.38469503341042793 0.0 
v -0.611731679003115 -0.37415563650667816 0.0 
v 0.13008231270355364 -0.1174730809601825 0.0 
v 0.12467734064092603 -0.11434435124116066 0.0 
v -0.27228708753616176 -0.30619609228566474 0.0 
v -0.1073482019499811 0.30538566122926103 0.0 
v 0.05704773670539289 -0.9983714517837498 0.0 
v -0.4126111264627516 -0.4210194981984664 0.0 
v 0.12370129238128783 -0.1171152145494316 0.0 
v 0.12464029679162358 -0.11756633995597957 0.0 
v -0.32895487110227983 0.22827595205155748 0.0 
v 0.038339023371062333 0.018525541580216427 0.0 
v 0.12383808883983441 -0.11835671835410257 0.0 
v -0.5027441271081335 0.17004525600880158 0.0 
v 0.3329333506253403 -0.054143573794876984 0.0 
v 0.029117207819731095 0.019602632404401778 0.0 
v 0.11243575636235797 -0.11978551530189177 0.0 
v -0.19116810251990066 -0.07571140114534589 0.0 
v 0.13150556427684562 -0.11563651239900295 0.0 
v -0.9799957990999774 0.1990181744122804 0.0 
v -0.8247944863036251 -0.5654326267232368 0.0 
v -0.0908863496273971 0.051515568816610346 0.0 
v -0.5584448753314653 -0.4015174292069928 0.0 
v -0.28215597880843707 -0.33940855908776496 0.0 
v -0.2519029406874853 -0.3289980312534484 0.0 
v -0.22255148652105325 -0.32291956875045436 0.0 
v 0.12443594703507077 -0.11913291869477145 0.0 
v 0.12983630970824045 -0.19055856484347974 0.0 
v 0.14792384824322324 -0.07246778061523504 0.0 
v 0.024858005432083965 0.029418664718802896 0.0 
v -0.1506270360874351 -0.25769225227935133 0.0 
v 0.025706692509327205 0.030901985143195608 0.0 
v 0.033031236679754626 0.02685693853639291 0.0 
v -0.15656074528776756 0.11951910878451609 0.0 
v 0.02668117237263169 0.03258572748407128 0.0 
v 0.41918921636392315 0.6768883566703503 0.0 
v -0.619292346850542 -0.45334713327793896 0.0 
v -0.5356026139031431 -0.4596098834418784 0.0 
v 0.025645829573754587 0.03843069243538181 0.0 
v 0.02680647389445731 0.037361658952304165 0.0 
v 0.1777546286053953 -0.056635215948645797 0.0 
v -0.7561302341173277 -0.0649643630311125 0.0 
v 0.06274030152008972 -0.13811852864385998 0.0 
v 0.02835708167953639 0.032671404174964544 0.0 
v -0.5808523110958274 0.48727088132863616 0.0 
v 0.2758350777790528 0.5960625174872969 0.0 
v -0.7895160934730622 -0.6137298576304032 0.0 
v 0.028394751012549548 0.027115793519372062 0.0 
v 0.12441791773011333 -0.1200551278768888 0.0 
v 0.1935053524616207 -0.17393992854491797 0.0 
v 0.1619374124485882 -0.16072336856609157 0.0 
v 0.12444645020621452 -0.12110490768861643 0.0 
v 0.026031881109382003 0.028250017514298686 0.0 
v -0.07449599603882033 0.16469958408602522 0.0 
v 0.02610372152241118 0.030395428831050907 0.0 
v -0.3489456816485542 0.08183794875885644 0.0 
v -0.2214008832607818 -0.05651804437848506 0.0 
v -0.06612157959323489 -0.048374225391416885 0.0 
v 0.08317543290645077 0.0371157337100283 0.0 
v 0.11326475794931407 -0.11372850269195724 0.0 
v 0.1224977924246377 -0.12614098072091817 0.0 
v -0.14161756295871342 -0.13469139869265373 0.0 
v -0.7504000295148942 -0.6609839602471803 0.0 
v 0.02601678048211438 0.03327698832009422 0.0 
v -0.45614174381121564 0.3405923712136939 0.0 
v 0.1230317814265026 -0.07921826609043242 0.0 
v 0.017089105116491882 0.025614899383833094 0.0 
v 0.12848840398289949 -0.12461447168677596 0.0 
v 0.04819218306995245 0.04337998286301838 0.0 
v 0.02544089614541089 0.030479584668032078 0.0 
v -0.2448718088221309 -0.041497909608306224 0.0 
v 0.0033798427999223025 0.08125429107661206 0.0 
v -0.7932117610597624 0.1520863667103675 0.0 
v -0.6614122077154673 -0.6553053839796297 0.0 
v -0.5695535291724523 -0.5608166925335588 0.0 
v -0.009491468602331027 0.021614534799288824 0.0 
v 0.12149835057523053 -0.15427792122728862 0.0 
v 0.02537079132950853 0.029565921480802927 0.0 
v 0.13673643602085644 -0.11509990192494789 0.0 
v -0.10977121042793966 -0.2870361655529181 0.0 
v 0.23642904847841806 -0.10411548267651152 0.0 
v 0.1300752801020632 -0.0854428538144333 0.0 
v 0.1326376314000552 -0.07702339073670089 0.0 
v -0.7077914753072408 -0.7064214234310844 0.0 
v 0.041361502073070544 0.024465748759712098 0.0 
v 0.12887417096619805 -0.11021117565543463 0.0 
v 0.02498765871104292 0.034957963678970534 0.0 
v 0.18497815064232292 -0.25529368738202457 0.0 
v -0.36344491940642326 -0.05882966725047332 0.0 
v 0.5573034135313452 -0.8303089215866047 0.0 
v 0.45393400737757805 -0.8910353062287335 0.0 
v -0.06248801524903595 -0.02824459612531797 0.0 
v -0.03296122579747026 -0.36919097209643487 0.0 
v 0.12133189350103299 -0.11913222891500454 0.0 
v -0.664541517725304 -0.7472513440732973 0.0 
v -0.0008236232047800815 -0.4009819901480993 0.0 
v 0.12962425033050576 -0.12594360957194098 0.0 
v 0.02691235170218287 0.033985005301264755 0.0 
v 0.6439980282984711 0.765027149549401 0.0 
v 0.12000094194487283 -0.12207063695686353 0.0 
v -0.028491578338070773 -0.09664136407278472 0.0 
v 0.02155084894650822 0.025102908229711472 0.0 
v -0.21414948770101042 -0.11136549031557809 0.0 
v -0.15196688694368593 0.31421605091772653 0.0 
v 0.16690301571451271 -0.08707523252465905 0.0 
v -0.42213411392964384 0.00445892714636666 0.0 
v 0.04053642628597232 0.043487782699966566 0.0 
v 0.1101324980245233 0.323985903912719 0.0 
v -0.08430650569076582 0.024600401619444705 0.0 
v 0.025720582699385756 0.03029189346004854 0.0 
v 0.11500898265024827 -0.11994724567698299 0.0 
v -0.2053269353491833 -0.003405637314919081 0.0 
v 0.12585134982748528 -0.09607110041362973 0.0 
v 0.13159781127921885 -0.09574151058440322 0.0 
v -0.20765198076739877 0.06610012900726275 0.0 
v -0.2959383201528111 -0.09004805026265975 0.0 
v -0.2488984626880828 0.24338756666689684 0.0 
v 0.0561125428137296 0.02715938073074459 0.0 
v -0.014349243029117408 0.346633073495218 0.0 
v -0.32188029698568066 0.17047040124764445 0.0 
v 0.04919733502946359 0.3860174979778521 0.0 
v -0.8493979827177749 0.5277528464679035 0.0 
v 0.12524088464153538 -0.1211286669973109 0.0 
v -0.05950237348752554 0.9982281640734001 0.0 
v -0.620301630502657 -0.7843633642615807 0.0 
v -0.04274250336289224 -0.03852202399907353 0.0 
v -0.0820485849231062 0.3586837528136063 0.0 
v 0.21384626474959603 0.4736242580946427 0.0 
v -0.3471507208295097 -0.02779889665211981 0.0 
v -0.18407558281027447 -0.01375308977904933 0.0 
v 0.032505405170820546 -0.2371460595240167 0.0 
v -0.3932529624740918 -0.10857255304149153 0.0 
v 0.11451378517028495 -0.07539816168747292 0.0 
v 0.0908022818323854 0.9958689399785656 0.0 
v -0.1302581890810856 0.8734935667989854 0.0 
v -0.570278164036323 -0.8214516514216529 0.0 
v -0.35377224058773477 -0.6285911475862214 0.0 
v 0.10949446889832082 -0.12225450109897892 0.0 
v -0.4914906130292141 -0.20435135120079972 0.0 
v 0.1957142074333628 0.9555338940036855 0.0 
v 0.0980372705374856 0.13376852593992913 0.0 
v 0.12326730346504707 -0.1213778127777066 0.0 
v 0.18503306627625538 0.050627604956398904 0.0 
v 0.5995639397318203 0.8003268595850437 0.0 
v 0.022903393480618848 0.030534657405940375 0.0 
v 0.11798499259519504 0.6313563058097997 0.0 
v -0.05339737771868057 0.20323729480932534 0.0 
v -0.421222998226553 0.3922844124798715 0.0 
v -0.4293529756211478 -0.8426590736893307 0.0 
v 0.20988685480552347 0.10455522154910586 0.0 
v -0.28978701911710775 -0.6789414317659597 0.0 
v 0.1374810259574006 -0.12786225198251588 0.0 
v 0.02929944978762354 0.04020693885200383 0.0 
v 0.1073025327065851 -0.07960072048038917 0.0 
v 0.4417250722920029 0.8971504670391833 0.0 
v 0.49908083297317074 0.8665554351331518 0.0 
v 0.10028395495002684 -0.14634875589432453 0.0 
v 0.021634366853022533 -0.01848530105833277 0.0 
v 0.1990711752663116 0.17938734537543594 0.0 
v 0.32245610484632303 0.3609024995292046 0.0 
v 0.019560831595187955 0.026575977969181878 0.0 
v -0.13071939829339668 0.34851448299001603 0.0 
v 0.14009713474403426 -0.1387347198971893 0.0 
v 0.0018560487816602043 0.21246361887068255 0.0 
v 0.043719070075346436 0.31542292330732336 0.0 
v -0.17751295144104565 0.007353373086449431 0.0 
v -0.38685610910269513 -0.7153638341736894 0.0 
v 0.040040845406887 0.11062732524792604 0.0 
v 0.27008704994448446 0.08643806338095267 0.0 
v 0.08607298267237336 0.176227682472904 0.0 
v 0.02718789998919055 0.029802848291681984 0.0 
v 0.3286073211706812 0.6655049928938361 0.0 
v 0.2310987509292679 -0.1798108948739664 0.0 
v 0.006983748196729788 -0.008149438599925141 0.0 
v 0.13589123575209985 -0.11144692506822391 0.0 
v -0.09168791930207125 0.19874500759536887 0.0 
v -0.042644896612524914 0.440058217440877 0.0 
v 0.2709017629964399 0.24411269369469585 0.0 
v 0.5451163194392078 0.7074746587033247 0.0 
v 0.13018480710850144 -0.1043115452347856 0.0 
v -0.5258410033460289 -0.8505828820285779 0.0 
v 0.43120244193103013 0.7562080309538484 0.0 
v -0.10935035167092545 -0.0022115238423394677 0.0 
v 0.1137168082852356 -0.14803434886745306 0.0 
v 0.144287962391726 -0.1184758787932218 0.0 
v 0.1265915601494602 -0.12938955680929276 0.0 
v -0.05785372385809993 0.12726173804911456 0.0 
v 0.08004394391245828 -0.2487978645679321 0.0 
v -0.7846171352228617 0.5370213988478816 0.0 
v 0.1271069644154286 -0.12009757078545116 0.0 
v 0.2931231227986006 0.0386914333955019 0.0 
v -0.0812666890493415 0.2704881258004692 0.0 
v -0.045389090209674264 0.2499832548147213 0.0 
v 0.1288752584640615 0.4028124894471119 0.0 
v -0.0549600272721577 0.3015414167978464 0.0 
v -0.28996243799593024 0.25491951572805166 0.0 
v 0.15783991327265867 -0.5354830868954352 0.0 
v 0.06945132325449259 0.48719238026386347 0.0 
v -0.2350668218922464 0.04979719867162177 0.0 
v 0.23393292854558012 0.7084360439306711 0.0 
v 0.12340485632215986 -0.08884726246761869 0.0 
v 0.10599366469492683 0.8124754787260223 0.0 
v 0.17340127271481084 0.9848512571047893 0.0 
v 0.40226182127938104 -0.9155246731470404 0.0 
v -0.01946550096540559 0.887314836504231 0.0 
v 0.07342348833146581 -0.08477159854747221 0.0 
v 0.030561177018148124 0.03169072381864894 0.0 
v -0.11342798428709425 0.261435856184316 0.0 
v 0.6866296730883786 0.7270073534941351 0.0 
v -0.21674128372874182 -0.08524693549541358 0.0 
v -0.4849279558721605 -0.8745541021650107 0.0 
v -0.1817921463135995 -0.6293523288434444 0.0 
v 0.9964937188729794 0.08366760571869775 0.0 
v 0.11283240079430369 0.04136873315871995 0.0 
v 0.9884841677710958 0.15132432080100056 0.0 
v 0.9072640264882237 0.09259434736278375 0.0 
v 0.9791881777489997 0.20295445931684603 0.0 
v -0.18282518386862057 -0.0282148519748032 0.0 
v 0.8797032497632766 -0.00711340150475625 0.0 
v 0.7877567339306717 -0.05695534596199489 0.0 
v 0.2824665300502413 -0.2920541923008744 0.0 
v 0.02551705317043464 0.044453176701727895 0.0 
v -0.21393858198869742 -0.02405976179474571 0.0 
v 0.9674419926021174 0.2530928504522493 0.0 
v 0.22960687418020911 -0.22744865632155004 0.0 
v 0.018022656076397768 0.019994035440891976 0.0 
v 0.9480206517038804 0.3182088055710432 0.0 
v -0.32599831142793245 0.028476168099448206 0.0 
v 0.7944409401307223 0.05034943116892621 0.0 
v 0.025447695686347166 0.028609224247243017 0.0 
v 0.923699366323025 0.38311810274958563 0.0 
v 0.024872264128657298 0.028830967817648122 0.0 
v 0.8714553263827294 0.40898449992287506 0.0 
v 0.8060714958717405 0.14303859900984028 0.0 
v -0.42874698572978137 -0.9034246079378326 0.0 
v 0.7807982750528262 -0.16786308540812891 0.0 
v 0.14650968603436598 -0.04777913985270437 0.0 
v 0.8977360709807758 0.44053370683751253 0.0 
v 0.8856546130077511 0.22689387634577773 0.0 
v 0.7406072340928596 0.22399887769452892 0.0 
v 0.8684506990343878 0.4957755372612522 0.0 
v 0.8570387738189257 0.3348051475424311 0.0 
v 0.6790839212791633 -0.10472550556501369 0.0 
v 0.4887838128269885 -0.12456541226468382 0.0 
v 0.8368952137910044 0.5473631346133104 0.0 
v 0.7767749969719157 0.3220274793612764 0.0 
v 0.03856424307734289 0.03952561315995271 0.0 
v 0.09873596129836111 -0.10174107924511286 0.0 
v 0.04976862323566409 0.03507709867198797 0.0 
v 0.6834594690912756 0.00917592563049968 0.0 
v 0.12434288768507325 -0.12697521552543295 0.0 
v 0.4116629316231361 -0.14534672319945416 0.0 
v 0.12256995333632437 -0.11637001031221288 0.0 
v 0.8032882810283526 0.39791107651118357 0.0 
v 0.5552291182811065 -0.04322534605384155 0.0 
v 0.023078093684544325 0.027046109350041887 0.0 
v 0.12181844250539353 -0.10086494316179721 0.0 
v 0.7023906656391459 0.12135646247718472 0.0 
v 0.581855435286844 0.08825585771773733 0.0 
v 0.4502982019690137 0.059231050700199836 0.0 
v 0.4222079637450739 -0.05746764892539182 0.0 
v 0.11419414512797259 -0.08601687988833619 0.0 
v -0.16996357526875078 0.35431728506106647 0.0 
v 0.7665445851652681 0.6421910922410922 0.0 
v 0.8031585144664974 0.5957653906026843 0.0 
v 0.8019534417897586 0.4925391229871174 0.0 
v 0.7277505280888867 0.6858419416063343 0.0 
v -0.28163187475860985 -0.0666568613499091 0.0 
v -0.36370849853524556 -0.9315128169237594 0.0 
v 0.6648422137051706 0.3173567653315182 0.0 
v 0.025238033103200424 0.04152848050384088 0.0 
v 0.7092188661784339 0.43119913274221844 0.0 
v 0.6079094193614325 0.21332008364157587 0.0 
v 0.4918457373790898 0.16967696991080541 0.0 
v -0.27925565968042076 0.20597563519021314 0.0 
v 0.12712068431706278 -0.12396448602278284 0.0 
v 0.12506034307443148 -0.11844482553098283 0.0 
v 0.5669500975617022 0.3115577961638725 0.0 
v 0.5875926680646799 0.40203722238563755 0.0 
v 0.35656364917341565 0.01196034172950457 0.0 
v 0.6088732700422546 0.5157471733624984 0.0 
v 0.40400094558019006 0.14961959321451576 0.0 
v -0.025459168015377467 0.1594378635129525 0.0 
v 0.30043469156509034 -0.010346798306474673 0.0 
v 0.5081399260885064 0.47232541344847057 0.0 
v 0.5068745518652159 0.2610378561953841 0.0 
v 0.25550670088260846 0.003000980186597311 0.0 
v -0.26215160384214325 -0.8155658649123237 0.0 
v 0.12388796996965377 -0.03115061691831827 0.0 
v 0.12265539505121212 0.0028602719234530685 0.0 
v 0.49612983247777015 0.5860044110902304 0.0 
v 0.46753163481201226 0.36403705326524705 0.0 
v 0.40013587021184277 0.24659737799541961 0.0 
v -0.03500099153289199 0.007575897615809953 0.0 
v 0.23576208088862916 0.0452984260743624 0.0 
v 0.6863449075497114 -0.197003491926378 0.0 
v 0.02260222271629792 0.026820444378259194 0.0 
v -0.7472538442100803 0.27133257032606695 0.0 
v 0.0662509918118439 -0.10879734910019166 0.0 
v 0.38057222504581556 0.4938012071387405 0.0 
v 0.3800667345674486 0.6036522970560909 0.0 
v -0.06342899390247854 0.017755144079153906 0.0 
v 0.18331984388358577 0.01261213929198319 0.0 
v 0.024017802694445294 0.028440156846999003 0.0 
v 0.02326179146459452 0.028639888788417635 0.0 
v 0.1514577893411577 0.02500615005227762 0.0 
v 0.15961699291707798 -0.01606103783329036 0.0 
v 0.13278517210424662 -0.10146803624046093 0.0 
v 0.0974410102849204 -0.0153056141461155 0.0 
v 0.09945655065114965 -0.07946673788223842 0.0 
v -0.2985143546454983 -0.954405144616573 0.0 
v -0.5495970070591996 0.0955464676812137 0.0 
v 0.033307348274399386 0.030434668039460232 0.0 
v 0.025691544757299956 0.03252433506695653 0.0 
v 0.10467547615388476 -0.06957389403017453 0.0 
v 0.07723542139611184 -0.13515578842515227 0.0 
v 0.15365159821547697 -0.1416657335940628 0.0 
v 0.047393001337910495 0.027156135180554552 0.0 
v 0.11835202901674918 -0.11747588963968973 0.0 
v -0.6990490517091775 0.0538031354833046 0.0 
v -0.15821848687298687 0.05619531187191145 0.0 
v 0.02099918011404019 0.0941314321652567 0.0 
v 0.09373974509386646 -0.048037133653220085 0.0 
v -0.09463415429965363 -0.2606799670249147 0.0 
v -0.3336169091161227 0.2939007232502898 0.0 
v -0.023321468607105027 0.11534483828924359 0.0 
v -0.22701844496655915 0.38253957417082307 0.0 
v -0.40986574356696776 0.30545139078634714 0.0 
v 0.05567047473823924 -0.06965733571147631 0.0 
v -0.22281896157965927 -0.9748598413928857 0.0 
v -0.08184738957971682 -0.6977314278036251 0.0 
v -0.3867350339852085 -0.0351740469994453 0.0 
v 0.12391797046435452 -0.11584398311932785 0.0 
v -0.24773166663494278 0.11727904348363676 0.0 
v 0.08824510226540887 -0.15566845618865993 0.0 
v 0.29436248320645925 -0.11158028462320912 0.0 
v 0.8396838118957448 -0.5430755896191904 0.0 
v 0.026948446704068423 0.039636266760406644 0.0 
v 0.024187089034096883 0.02906747244661422 0.0 
v -0.055856842965407785 -0.14907028216038926 0.0 
v 0.026168730506269108 0.023727202234753636 0.0 
v -0.19745696379170197 -0.027006539900952253 0.0 
v -0.007642904041807918 -0.9999707925823672 0.0 
v -0.6619019516613783 0.28822059127345306 0.0 
v 0.08572127845329215 -0.14518364050130514 0.0 
v 0.011812427455954629 0.02346113033291652 0.0 
v 0.02864093243677634 0.03053573098202777 0.0 
v 0.11430831819464937 -0.11567806307890154 0.0 
v -0.2875166963975146 -0.01904051248310661 0.0 
v 0.02237549354149901 0.02850828778975426 0.0 
v -0.1426826724272811 -0.899707207575863 0.0 
v -0.29656722048664297 -0.5967506442423748 0.0 
v 0.023211948043141493 0.04039044579880591 0.0 
v -0.9467831354776151 0.32187217086162645 0.0 
v -0.13844495521085715 -0.0566369667246264 0.0 
v -0.9250179438370185 0.3799234180457087 0.0 
v 0.12589167551709052 -0.1215000793578359 0.0 
v -0.1689587913777755 -0.022602566667199207 0.0 
v 0.024852129791431976 0.03952719270461844 0.0 
v 0.026120148472172065 0.031141994848646225 0.0 
v 0.01854924477131602 0.015922683142509744 0.0 
v 0.04906246382884471 -0.2611786746673346 0.0 
v 0.12462159537778944 -0.11968839186884608 0.0 
v 0.12493585964889077 -0.12011631347464481 0.0 
v 0.025637418502433913 0.03406066918991183 0.0 
v 0.12906579311966454 -0.11361621447919922 0.0 
v 0.09919221815665473 -0.1351223604262691 0.0 
v -0.12688000270280128 -0.006240294244392586 0.0 
v 0.12018611138273952 -0.11759460482541431 0.0 
v 0.015162289946137187 0.01570347739021258 0.0 
v 0.7212071916469046 0.5707750892562974 0.0 
v 0.004548263931787023 0.022320093913693436 0.0 
v -0.3061180247539343 0.36427285692235123 0.0 
v -0.3537688648098805 0.40682759138992397 0.0 
v 0.09069620700015911 0.013304017227444962 0.0 
v 0.016324115406515835 0.024604914427366686 0.0 
v -0.10785691065576236 0.08480116771453447 0.0 
v 0.028362517544151523 0.036417273955288224 0.0 
v -0.21838489905566394 0.1890869182576318 0.0 
v 0.11067798536314345 -0.140397326066892 0.0 
v -0.41554180035171345 0.5710516790801774 0.0 
v -0.1225549897440367 0.01012858270749808 0.0 
v -0.598323862793235 0.8012543636150645 0.0 
v -0.19784206418346903 -0.13090163543867273 0.0 
v 0.03305656474473875 0.01576123280954609 0.0 
v 0.03885935963288423 0.03605234172936812 0.0 
v -0.051089489463802366 0.007836266638316401 0.0 
v -0.061618117097466535 0.04169399729918109 0.0 
v -0.13153147217222577 0.13747816878416788 0.0 
v 0.038544195940605284 -0.29857460368004424 0.0 
v -0.17765445694154877 0.1715957525432142 0.0 
v -0.21351922417612668 0.2226137757551572 0.0 
v -0.2982991341436065 0.4467641562760122 0.0 
v -0.3782856588306174 0.4782691363056289 0.0 
v -0.5213008001492627 0.6182402018888637 0.0 
v -0.5310020388497287 0.7718016504720345 0.0 
v 0.15849893314888358 -0.18188217597124276 0.0 
v -0.5502045719688113 0.835029897060349 0.0 
v 0.10512125828488045 -0.13667175153529024 0.0 
v 0.10005037723258978 -0.09540298585157336 0.0 
v -0.07670736951016374 0.10150318390577112 0.0 
v 0.09643079532784976 -0.739725330564158 0.0 
v 0.1238800189024577 -0.12033936851430295 0.0 
v -0.15498613009981296 0.1556237208990875 0.0 
v -0.04647607538401541 0.022811026158930176 0.0 
v 0.11304299699525114 -0.12098497331377223 0.0 
v 0.11112266873008239 -0.13292805435267213 0.0 
v -0.15265996656867603 -0.21715152420625736 0.0 
v 0.10432946422449457 -0.12856226093629328 0.0 
v -0.0993194947135776 0.12849898209710614 0.0 
v -0.15670724744935913 0.19139376505122493 0.0 
v -0.1896131231360184 0.19654524679420304 0.0 
v -0.17265169329371988 0.23290415096555286 0.0 
v -0.2101463284699292 0.26603702133234597 0.0 
v -0.309054864433883 0.5656270766390841 0.0 
v -0.49679743932046677 0.8678665244636569 0.0 
v 0.12959450779078158 -0.12750692567547253 0.0 
v 0.12042094757636394 -0.11133728294593051 0.0 
v 0.018873337744575034 0.04563713471843393 0.0 
v -0.03141747649426452 0.023305503612888412 0.0 
v 0.029137137698393385 0.025068523550439814 0.0 
v 0.20933015973948252 -0.8318512385474242 0.0 
v 0.21516395484650142 -0.7356996523295296 0.0 
v -0.12607978859993962 0.2206771006530081 0.0 
v -0.1688788995102485 0.2779122808268214 0.0 
v 0.02353173056547284 0.038848888037706836 0.0 
v 0.1946686916680974 -0.0915462686854056 0.0 
v 0.10907584775880313 -0.09654866592259582 0.0 
v -0.036301383813188495 0.03869934770823128 0.0 
v -0.07068787205982359 0.0728680552645118 0.0 
v -0.047818846263555335 0.0940859764035886 0.0 
v -0.11901204805614769 -0.36142229344113824 0.0 
v -0.18870714693597393 0.5907661015609599 0.0 
v -0.2697599763817679 0.68342768242394 0.0 
v 0.10627703686684588 -0.10303483168052763 0.0 
v -0.019089609449484617 0.06459635280339021 0.0 
v -0.039239639204596576 0.06360843744738523 0.0 
v 0.22794003816366887 0.012946846386372378 0.0 
v -0.3972413873267368 0.7060620785986064 0.0 
v -0.43961747740403573 0.8981850998323854 0.0 
v -0.3910942368641324 0.9203506385566654 0.0 
v 0.10896227665514926 -0.11122444531505735 0.0 
v -0.020058641407114216 0.04938572718728821 0.0 
v -0.019103004341543127 0.08392960546550529 0.0 
v 0.11878565679955959 -0.9929199201036795 0.0 
v 0.02494598735041097 0.028234981346753497 0.0 
v 0.21173363753417498 -0.01734085338107798 0.0 
v 0.1337686375969599 -0.12793333760209458 0.0 
v 0.11072000238340428 -0.12713195859804102 0.0 
v 0.30982114369103825 -0.2243925143202459 0.0 
v 0.12499946003727483 -0.12064114064202267 0.0 
v 0.13434481242903956 -0.13068604569937708 0.0 
v -0.2944127537167662 0.8341011598537589 0.0 
v 0.12194657782671223 -0.12353009410081156 0.0 
v 0.11092877891353836 -0.10394895900123677 0.0 
v -0.006341389799526023 0.06828167335483092 0.0 
v 0.188995101294821 -0.9346109876695523 0.0 
v 0.3088100700577953 -0.8658254491765894 0.0 
v 0.02701999341336435 0.02840268198848343 0.0 
v -0.018998353291673722 0.031391394543714576 0.0 
v 0.16000946895221999 -0.11484878023330876 0.0 
v -0.12753269813485557 0.11273241368784552 0.0 
v 0.13031051969800403 -0.12903464909531806 0.0 
v -0.348388162100753 0.011441179732563958 0.0 
v 0.02319715329729861 0.06322181431119608 0.0 
v -0.1593837294954794 0.7205819954672908 0.0 
v -0.09048951201308024 0.0031500339447336624 0.0 
v -0.3392079853331559 0.9407114024429728 0.0 
v 0.18089180814164602 -0.9835030013920882 0.0 
v 0.4221653468976032 -0.8598744904185881 0.0 
v 0.1115723597401437 -0.10866346978186861 0.0 
v -0.01070537249464316 0.057776320561941444 0.0 
v -0.0012899198664566335 0.10033566888348638 0.0 
v -0.34889258759634967 0.04430205739899723 0.0 
v 0.027069248012669425 0.03558622047976185 0.0 
v -0.08163786184991988 -0.03237390143625457 0.0 
v -0.38178545887558907 0.08256809172489941 0.0 
v 0.1118607037643086 -0.11173794414295789 0.0 
v 0.1385488687408633 -0.1189217083089031 0.0 
v 0.3387566793825716 -0.16238116743002132 0.0 
v -0.05055101469883571 0.589285512812897 0.0 
v -0.12794434953911188 0.5026256397942833 0.0 
v -0.1423948678449445 0.09336464105890302 0.0 
v 0.11515024224286517 -0.10663072679148042 0.0 
v -0.009116066056434224 0.04016570961031605 0.0 
v 0.11835750608183862 -0.0949571536561203 0.0 
v 0.11611572282846078 -0.11955052229234855 0.0 
v -0.27711661332449966 -0.03966578098158791 0.0 
v -0.2287390478477354 0.9299968147092242 0.0 
v -0.2771031952166849 0.960840163190894 0.0 
v 0.3477984127532888 -0.9375693382818643 0.0 
v 0.11066875953528969 -0.11405654923363057 0.0 
v -0.29065351507748627 -0.2679340037924541 0.0 
v -0.33832532164896156 -0.1756176672238884 0.0 
v -0.3675406076483149 -0.4582126189186514 0.0 
v -0.0010771562773122382 0.0571553218281593 0.0 
v 0.008546960965904703 0.06497814839337732 0.0 
v -0.20376154184248024 0.9790205483369464 0.0 
v -0.24142083841334525 0.20772175051431171 0.0 
v -0.1676078191294162 -0.1556993875089565 0.0 
v -0.1415128257432503 0.038790041485632 0.0 
v -0.24845214728707216 -0.07291683330306149 0.0 
v 0.12256476708497482 -0.11783732549612837 0.0 
v 0.12245320154807596 -0.11870954983510865 0.0 
v -0.006960065539778695 0.04946252763603857 0.0 
v -0.00224445896106361 0.04350970631126127 0.0 
v 0.0014413019578952712 0.048782380317265145 0.0 
v 0.007555627246274474 0.05365088070550235 0.0 
v 0.11135249015801373 -0.12325942614206797 0.0 
v 0.11560649671631588 -0.1141304871172193 0.0 
v 0.11809999145879564 -0.11287900909292463 0.0 
v -0.0001420189201445233 0.036725815133360436 0.0 
v 0.1343887662123085 -0.12072987618661518 0.0 
v 0.9959868616046158 -0.0894995615128249 0.0 
v 0.0257093840693305 0.036039357209664315 0.0 
v 0.02606321219953193 0.034925843171914654 0.0 
v 0.11218885618824527 -0.1214018382620714 0.0 
v 0.07022280039416011 0.10072175658108092 0.0 
v 0.12036685309468453 -0.11942303956843037 0.0 
v 0.0035545537531441263 0.04241209885932615 0.0 
v -0.1853298121570476 -0.15784308207156447 0.0 
v 0.1486199222631249 -0.11157405548138472 0.0 
v 0.11355574362127907 -0.12212869116830821 0.0 
v 0.0020115528315332626 0.029097676234611892 0.0 
v 0.015647419767561083 0.055413839280124964 0.0 
v -0.36491850809469156 0.35254739496575677 0.0 
v -0.09559051729837824 -0.016467635540394866 0.0 
v 0.11399163180912224 -0.1206238485228175 0.0 
v 0.025055397962748947 0.03000043632240001 0.0 
v -0.39002672667970884 -0.07270253564592541 0.0 
v 0.12078508737305275 -0.11359603864644627 0.0 
v 0.021234972939676466 0.041088135824848784 0.0 
v 0.006367491293506137 0.029755517490753853 0.0 
v 0.028326330629123656 0.02893879059278961 0.0 
v -0.0020207952739332877 0.0241193907801074 0.0 
v 0.125028673062354 -0.12199276388783356 0.0 
v 0.007819311526107568 0.046503746563303215 0.0 
v 0.012955925537490452 0.04907184785078418 0.0 
v -0.1148132842322979 -0.23675661557799513 0.0 
v 0.025187643692176426 0.031136989140411783 0.0 
v 0.1234750332585092 -0.1188780822452471 0.0 
v 0.025681052714465455 0.03135592822783706 0.0 
v 0.11946964863991914 -0.11659037116816465 0.0 
v 0.005522660121728709 0.03346760884073782 0.0 
v 0.008882702827159398 0.04104212560373016 0.0 
v 0.05954214685428108 0.07672541442579793 0.0 
v 0.024350460237663567 0.029908087287644422 0.0 
v 0.11935325768602502 -0.11491930495907812 0.0 
v 0.12063258495712326 -0.11690110281254495 0.0 
v -0.6534961850547578 -0.052813897614127435 0.0 
v -0.2971219525343586 0.12882898727340705 0.0 
v 0.009293928773901164 0.031421377260635236 0.0 
v -0.09787358226591304 -0.07756031777949672 0.0 
v 0.012525757834681687 0.04406314604321123 0.0 
v -0.19849893370022398 -0.04002208704172103 0.0 
v -0.35273014426464494 -0.5425450996853431 0.0 
v -0.20913677540078676 -0.039404157983940154 0.0 
v 0.27036841070685225 -0.16960702533508376 0.0 
v 0.12788295320537602 -0.11911759642470343 0.0 
v 0.11503124738806123 -0.118665191893799 0.0 
v 0.025617130430335203 0.03000066688106264 0.0 
v 0.14869739396502313 -0.3564838458794437 0.0 
v 0.1284853127277321 -0.12067144347817339 0.0 
v 0.017913731901491252 0.025576125649210295 0.0 
v 0.1209552860087416 -0.11755343053216981 0.0 
v -0.21994904424236925 0.15841876158802154 0.0 
v -0.27097242194729926 0.09822523896762571 0.0 
v 0.013791587097446791 0.03946849523147487 0.0 
v 0.00865213852252221 0.024693111043538416 0.0 
v 0.008911187853748184 0.028014704484387327 0.0 
v 0.01398992438327655 0.035651393126323185 0.0 
v 0.01569592395750117 0.04261887670980332 0.0 
v -0.0848150101400531 -0.22707810014550012 0.0 
v 0.01817834078793315 0.04912569021239169 0.0 
v -0.37834433688497876 0.028677380922196783 0.0 
v 0.05772192626175826 -0.23577906412122612 0.0 
v -0.3344702014628093 -0.06529081442051349 0.0 
v -0.2470459464664319 0.17754485670165954 0.0 
v 0.011318102280417578 0.02636333002436004 0.0 
v 0.011737339365522655 0.02907867045363944 0.0 
v -0.6189931895545285 0.10473158158016876 0.0 
v 0.12535995369001363 -0.1092310056189514 0.0 
v 0.03055073250990281 0.03622846529862506 0.0 
v 0.03121301145840777 0.07576040503963637 0.0 
v 0.11696777599794421 -0.11883222888159596 0.0 
v 0.02644419801044153 -0.035245244979274 0.0 
v -0.37735875308219835 -0.4191984132578284 0.0 
v 0.017084389735977423 0.03664452973147372 0.0 
v -0.07230628513572843 -0.07235955548841305 0.0 
v 0.009224722726606469 0.02122318687247614 0.0 
v 0.0215859401430918 0.028603432906170487 0.0 
v 0.11829300271978005 -0.10934713622752165 0.0 
v -0.01839603269998015 -0.18504080732448572 0.0 
v -0.036814617816993564 -0.20627953486902434 0.0 
v 0.013137242253290079 0.027397335715833755 0.0 
v -0.5431521054804536 -0.7170707590245596 0.0 
v 0.01584875107405726 0.03393217837437443 0.0 
v 0.017825290512126907 0.04352601026640527 0.0 
v 0.11759588366362779 -0.11994081832644181 0.0 
v -0.6666316859877394 0.18465174423639583 0.0 
v 0.10367270642963371 -0.08754792891372387 0.0 
v 0.023766611966088137 0.027968834325373483 0.0 
v 0.016345154188501507 0.02107629414289363 0.0 
v -0.8995257600118316 0.3015146100815361 0.0 
v 0.013658278231467699 0.025535028115844755 0.0 
v 0.014399287703499249 0.02704968934496841 0.0 
v 0.018124140426112982 0.0337824797973197 0.0 
v 0.08967525286494273 -0.07235956252969429 0.0 
v -0.964769633718845 0.26309609243393484 0.0 
v 0.27127862689229393 0.1478476485777241 0.0 
v -0.04686747117397326 -0.17815233945900433 0.0 
v 0.018327888280865727 0.04036294770775364 0.0 
v 0.04297891878468999 0.03821486831455763 0.0 
v -0.7956771318585087 0.6057209768840909 0.0 
v -0.18886120577486912 0.09742982708767332 0.0 
v -0.16241427686480361 0.09726607819481756 0.0 
v 0.046440987735784714 0.009074336210381001 0.0 
v 0.014976380999699047 0.02615436051134464 0.0 
v -0.36706395933343766 -0.1644692796353841 0.0 
v 0.015651333347496212 0.027201761741462757 0.0 
v 0.12841920666542633 -0.12851352058961565 0.0 
v 0.016854929478683667 0.031267174620491445 0.0 
v 0.0935351263392499 -0.09824213926429289 0.0 
v -0.20077325017935801 0.03311805954839808 0.0 
v -0.22452004747903545 -0.03532705792323238 0.0 
v 0.01839104675006732 0.02616374339353606 0.0 
v 0.12488388909694768 -0.13283668391472547 0.0 
v 0.020226528490780167 0.035557227662327454 0.0 
v 0.0192819083993025 0.03775698622074281 0.0 
v -0.8334292020531978 0.26152158771098627 0.0 
v 0.018469337187522222 0.021715797529822504 0.0 
v 0.017041922304074864 0.02840977800983307 0.0 
v 0.15763332641081948 -0.10238000945679153 0.0 
v 0.05958455387715919 0.01649066610255293 0.0 
v 0.1252020790584338 -0.11945740541057026 0.0 
v 0.12210269805013728 -0.12165505193406874 0.0 
v -0.31240070176350343 -0.256678439000484 0.0 
v -0.0597052789637509 -0.13328699747332237 0.0 
v 0.04128737272123578 -0.012849092667061197 0.0 
v 0.021488827089586698 0.03846323978141648 0.0 
v -0.8192360784217693 0.3865000474733005 0.0 
v -0.26203111065833384 -0.020404929219889206 0.0 
v 0.018788678236836748 0.03096130636076823 0.0 
v 0.018746184474553926 0.03214177089797018 0.0 
v -0.3765504735460188 -0.0036790911700875376 0.0 
v 0.011377446426556612 -0.18697022104158023 0.0 
v 0.016900812144861423 0.026737026772183214 0.0 
v 0.01795598305935308 0.02706467274010559 0.0 
v 0.022042939743356898 0.034708097672889314 0.0 
v 0.019979114928510802 0.03154589621399061 0.0 
v 0.019984059302625447 0.03315199749728097 0.0 
v -0.3469827025074767 -0.40715940745940044 0.0 
v 0.01852618428205458 0.02963460828704576 0.0 
v 0.20174887126223195 0.34324240698648223 0.0 
v -0.008882374961681117 -0.08097131243763893 0.0 
v 0.022526682853204485 0.03616610778702171 0.0 
v 0.018920971232130004 0.02684295341012098 0.0 
v 0.01883101013053187 0.02800324126718657 0.0 
v 0.021279280376074888 0.03378438281047489 0.0 
v 0.02865129677369673 0.015398442029647665 0.0 
v 0.11984375632094318 -0.11844820636308652 0.0 
v -0.19900524218427992 -0.05349145686450447 0.0 
v 0.10453627241061936 -0.11748530391802578 0.0 
v 0.02358843977283294 0.03462840648634876 0.0 
v 0.019590426986776956 0.027213081301245053 0.0 
v 0.01980358752181954 0.028949067679652028 0.0 
v -0.18903852406046492 -0.23599361498226318 0.0 
v -0.2627531215565376 -0.05181674530427591 0.0 
v 0.019836978020380796 0.03021708178434317 0.0 
v 0.021549107119719933 0.03210022760160296 0.0 
v 0.044970295772956775 0.05821584772100874 0.0 
v 0.019929648780393883 0.026805000323842625 0.0 
v 0.02096968241694796 0.030702993141978156 0.0 
v 0.07017700126950153 0.024134493272095256 0.0 
v 0.022083244700312303 0.027031075416286104 0.0 
v 0.02153566624437828 0.030120529294287948 0.0 
v -0.13124091978277957 -0.15083744865124116 0.0 
v 0.021962607452582758 0.03072560493501997 0.0 
v 0.022593767223892 0.03340436361827376 0.0 
v 0.025161415076023465 0.033229204558266716 0.0 
v 0.02074932236029721 0.026922958042413386 0.0 
v 0.020915533326267246 0.02728598671171516 0.0 
v 0.02256204108196431 0.031350322088781024 0.0 
v 0.023062304175161266 0.03213626050702427 0.0 
v 0.33734035400362844 0.1767949801580849 0.0 
v 0.020626107436731586 0.027720658736494135 0.0 
v 0.12154823681833037 -0.1178654552878185 0.0 
v 0.02069473643432069 0.02842232827440882 0.0 
v -0.26880186598910516 -0.2184421557811724 0.0 
v 0.021483817569403686 0.027236778112964263 0.0 
v 0.020954620736115183 0.029508619022624284 0.0 
v 0.02333279318173875 0.031254859994317576 0.0 
v 0.1405883726116951 -0.11360660270732703 0.0 
v 0.02201486853409676 0.027792798413497754 0.0 
v 0.021220167240651962 0.027843663859208435 0.0 
v 0.022596303349873812 0.027365932046944697 0.0 
v 0.022255754371867217 0.029544900077529378 0.0 
v 0.38634042535142726 -0.2171765775075442 0.0 
v -0.16771355557737558 -0.1374046840127596 0.0 
v -0.14064714723285732 -0.23943174153678287 0.0 
v -0.4500424331728236 0.16741014232474172 0.0 
v 0.014807894458680757 0.02323378269713374 0.0 
v -0.7129884609846739 -0.25947105595207304 0.0 
v -0.3252536530237302 -0.24174623690445546 0.0 
v -0.7091123860766348 0.3550150845518985 0.0 
v 0.14928259022553683 -0.15449457687446608 0.0 
v -0.22122460318384035 -0.12820406078931718 0.0 
v -0.26927674396985224 -0.1331157572275314 0.0 
v 0.12042663852047662 -0.1206102095782835 0.0 
v -0.3175560322529324 -0.15727801054877977 0.0 
v 0.04458740057000372 0.08805493929110624 0.0 
v -0.9088820947563037 -0.2348629401482861 0.0 
v -0.9546250715778329 -0.29781029652283253 0.0 
v -0.3539081710736 -0.3688760808183135 0.0 
v -0.23991419268569353 -0.11058168132762818 0.0 
v -0.29690854391551774 -0.14276984059551628 0.0 
v -0.4370234988169693 0.22066400191864316 0.0 
v 0.12336499043647962 -0.0625810479480323 0.0 
v 0.03552068584974331 0.06292172398610418 0.0 
v -0.9716090141444044 -0.2365923152457378 0.0 
v -0.37482871509476234 0.11552681418026842 0.0 
v 0.11778470368324576 -0.1418300489371252 0.0 
v 0.12154610099424439 -0.11704206171112155 0.0 
v -0.34181845635366204 -0.14601937526627545 0.0 
v 0.03599354477015709 0.042147197226654894 0.0 
v 0.20875773334926281 0.02082883266560778 0.0 
v -0.36684292299593957 -0.1296894065470429 0.0 
v -0.31933943605921955 -0.12975588295322452 0.0 
v -0.986087660036818 -0.16622613128841304 0.0 
v 0.03038807629373747 0.028836898182382806 0.0 
v 0.1333325225759694 -0.12477178814537464 0.0 
v 0.09986576081026159 -0.12191583565355757 0.0 
v 0.025312029899828576 0.02913910295770767 0.0 
v 0.08508905734331539 -0.11391320034359939 0.0 
v 0.018708929642113736 0.025230411184535072 0.0 
v 0.09708099206200167 -0.11403806261256669 0.0 
v -0.1534315430757304 -0.11115964214689285 0.0 
v -0.1773772146277675 -0.1149154114818878 0.0 
v -0.27185186619700974 -0.09809965565741231 0.0 
v -0.34178306583148116 -0.11930600468933289 0.0 
v 0.11572476455510426 -0.11567453408525619 0.0 
v 0.03575530536536734 0.02366478595205166 0.0 
v 0.1495047287197467 -0.09077343208053151 0.0 
v -0.17523782793922382 -0.037525870109327945 0.0 
v -0.172873615578955 -0.09321795728425496 0.0 
v 0.12411617341643852 -0.11968019388735504 0.0 
v 0.11580039494921737 -0.10139407008274431 0.0 
v -0.3252630462231502 -0.2856729169422323 0.0 
v -0.312709957156032 -0.3073828618502614 0.0 
v -0.8885396086885821 -0.08103957461766703 0.0 
v -0.152512436093143 0.01453635015528968 0.0 
v -0.14800843805687883 0.0014515332868155959 0.0 
v 0.11085048666963644 -0.15857224364566735 0.0 
v 0.1049659434293717 -0.2652071610587664 0.0 
v 0.1310428568066155 -0.15702471066369816 0.0 
v -0.9948959414919532 -0.10090622182422723 0.0 
v 0.129419218089528 -0.0987980318642405 0.0 
v -0.30958247367442976 0.09173316021346567 0.0 
v -0.10303398998562574 -0.03636123865210087 0.0 
v 0.09304851420871481 -0.10584491655609178 0.0 
v -0.17009603443988136 -0.07353200576183735 0.0 
v -0.02528436357844708 -0.7223579018408554 0.0 
v -0.999069670692061 -0.04312531858730761 0.0 
v 0.03351813792870352 0.020220849579513773 0.0 
v 0.09195678510070192 -0.08825158345721021 0.0 
v 0.03177170407204803 0.04211908289785258 0.0 
v 0.03770298083565702 0.05479426348342887 0.0 
v -0.9998945369769863 0.01452291029987582 0.0 
v 0.041952677406323954 0.03176639076305201 0.0 
v 0.13143667853506494 -0.12713056185747904 0.0 
v -0.9663912486701723 0.007301251249500068 0.0 
v -0.9978411728474281 0.06567338707931066 0.0 
v 0.12389210375225847 -0.13560750496219448 0.0 
v 0.1267868507602891 -0.13178140630809315 0.0 
v 0.024244404878420313 0.03610449590702355 0.0 
v 0.1263855240264281 -0.12476687508672543 0.0 
v 0.025512618707258173 0.027929539323008713 0.0 
v 0.1238064090938357 -0.12549972400583453 0.0 
v -0.18839675342412723 -0.040186193417487255 0.0 
v -0.177356369060713 -0.05485635461361464 0.0 
v 0.12135889702333337 -0.12476917355541661 0.0 
v -0.9921529385103388 0.12503018277719896 0.0 
v 0.12302101641049897 -0.1234342548250191 0.0 
v 0.1191670936901272 -0.1281998456763115 0.0 
v -0.26168941704656834 0.048549254982808446 0.0 
v -0.2570468776614665 0.06943788425800612 0.0 
v -0.3588419140748798 -0.09318204253436263 0.0 
v 0.08018913946691153 0.06398559071188063 0.0 
v -0.9358574529092123 -0.3523788129758677 0.0 
v 0.10767975255259264 -0.11430431454506418 0.0 
v 0.11882557337002406 -0.12532266516355164 0.0 
v -0.40858753700461364 0.15372671661734055 0.0 
v 0.03053425454189355 0.05517471107441571 0.0 
v -0.17237267103332007 -0.008642315902871673 0.0 
v -0.33585150278286874 0.1233558509134463 0.0 
v 0.11964951818101513 -0.1213075761587022 0.0 
v 0.12521364920156353 -0.12523286961369529 0.0 
v -0.8835423043670098 -0.4683513599786321 0.0 
v -0.23770321673232764 -0.14512303650508288 0.0 
v -0.2611539216240647 -0.16319845874428773 0.0 
v 0.11860240497947723 -0.11926630616383528 0.0 
v 0.11920726880644049 -0.1201845568464422 0.0 
v -0.20540249088070212 -0.15253875595179184 0.0 
v 0.12281218718469712 -0.12001078647770944 0.0 
v 0.025502878446965343 0.025340239226857974 0.0 
v -0.3110708509634836 -0.18507353217300446 0.0 
v -0.2165140546167011 -0.143048460359624 0.0 
v 0.12177991790614397 -0.10880507287928354 0.0 
v 0.023568957144249923 0.03753517921212473 0.0 
v 0.1607581245411172 0.08746327624505451 0.0 
v -0.2823249474454816 -0.18027856479743834 0.0 
v -0.23544110294297493 -0.17923802397393612 0.0 
v -0.33549072495996024 -0.22456857200042984 0.0 
v -0.332315373905818 -0.19929468828789104 0.0 
v -0.28150754830633323 -0.15675887728910867 0.0 
v -0.29787358457674973 -0.16443176508076948 0.0 
v 0.01457320368554321 0.028959960640356146 0.0 
v 0.025306532294916938 0.031815760797482905 0.0 
v -0.1950252947233074 -0.10189313852685884 0.0 
v 0.13366607930455712 -0.09078387743371602 0.0 
v 0.127165351147469 -0.12684099280491523 0.0 
v -0.22039789810316637 -0.1584748131132554 0.0 
v 0.023265945002857568 0.027910859579894632 0.0 
v 0.02275911319384475 0.027960418763156032 0.0 
v 0.11932879356103065 -0.12188647399596181 0.0 
v -0.7977297135404838 -0.18577937715095627 0.0 
v 0.12314673842404739 -0.11205915788347667 0.0 
v -0.3165627148722491 -0.20964255261013706 0.0 
v 0.1229160511494409 -0.12454590939955965 0.0 
v 0.1239873128337931 -0.10544188263658538 0.0 
v 0.12356415900970304 -0.11969537925254914 0.0 
v -0.8277261423967922 -0.3242140732365282 0.0 
v -0.8197355155805752 -0.4410177896902842 0.0 
v 0.13224814848732516 -0.1292160403257263 0.0 
v -0.9115029644056805 -0.4112935033278021 0.0 
v -0.19256546976358133 -0.31246765868723775 0.0 
v 0.11481900405188737 -0.12494977729413165 0.0 
v -0.26066997034741857 -0.184676492672629 0.0 
v -0.08520814152780024 0.2340944399762014 0.0 
v -0.27146077425812826 -0.19883935096014163 0.0 
v 0.1258381643847432 -0.12040444341024606 0.0 
v 0.1341290984009366 -0.11430280993425879 0.0 
v 0.024536790758954086 0.0383283826915686 0.0 
v 0.027269256230422922 0.025240113044803763 0.0 
v -0.25783870754189314 -0.35354910009687635 0.0 
v -0.8552202986208928 -0.5182646436202174 0.0 
v -0.16815530256355393 -0.26813998412039003 0.0 
v 0.12577515078127025 -0.12787864928421822 0.0 
v 0.030979887383990146 0.03888044072706258 0.0 
v 0.02797262614064547 0.042277063117082285 0.0 
v -0.2925379820421928 -0.20897147666212723 0.0 
v -0.3067928910068708 -0.3628597868409437 0.0 
v -0.2334307452855059 -0.3506842136516259 0.0 
v -0.16353304775548877 -0.2961256392123626 0.0 
v 0.1198066967095755 -0.13420086070965787 0.0 
v 0.16428133849244778 0.2540165972405192 0.0 
v 0.12461448835223718 -0.1305993975685517 0.0 
v -0.4514601311975183 -0.4917408353790675 0.0 
v 0.120344317276218 -0.12631758492691622 0.0 
v 0.12210830983084 -0.11927469649633116 0.0 
v 0.1283585961037575 -0.13682205493569144 0.0 
v 0.005570484088910654 0.037908819227036684 0.0 
v -0.32932259296313404 -0.3779505393186322 0.0 
v -0.3081001386203736 -0.39596987164828995 0.0 
v -0.2750438177411959 -0.37682401423628387 0.0 
v -0.24666005518684142 -0.3718306822552584 0.0 
v -0.22333880139075507 -0.3754652658018395 0.0 
v -0.1982924803850074 -0.3513426337518787 0.0 
v -0.1652047328602063 -0.32961715382844253 0.0 
v 0.12744253914716125 -0.10191148021846806 0.0 
v -0.14918115246434646 -0.27553401307405645 0.0 
v 0.5510445131385064 0.8344758501837823 0.0 
v 0.12632011044871852 -0.11244392268115114 0.0 
v 0.17469541684376028 -0.14647417399459522 0.0 
v 0.5077139081176475 0.8090455379131699 0.0 
v 0.028691811995785813 0.04979817891198065 0.0 
v 0.3815300408105223 0.9243564398862182 0.0 
v 0.1515445627983955 -0.12422610245224303 0.0 
v -0.30636543437158975 -0.2754382923615747 0.0 
v -0.006292858218830585 0.0305190868502332 0.0 
v 0.12838201596548682 -0.12270975838592217 0.0 
v -0.4797240559969115 0.28939058085951114 0.0 
v 0.0240405321562061 0.033068806631302405 0.0 
v -0.2436482039748569 -0.40263081748966617 0.0 
v -0.19466252212156365 -0.400837981860768 0.0 
v -0.14409491931709878 -0.31350710804870174 0.0 
v 0.024899121714378598 0.0324554180323753 0.0 
v 0.1174358250509348 -0.12555697459984086 0.0 
v 0.15423882305359143 -0.7967761565494854 0.0 
v 0.11855038413376301 -0.12653714784616776 0.0 
v 0.11483536494164616 -0.11101675369227566 0.0 
v 0.07458539091803812 -0.023813398448186293 0.0 
v 0.10429529241520612 -0.11116240443861906 0.0 
v 0.1224979819292081 -0.13213424224688125 0.0 
v -0.0762446605727795 -0.9970891393120986 0.0 
v -0.12790804508247303 -0.2641053681005245 0.0 
v 0.009052689205103737 0.999959023569544 0.0 
v 0.11957252134430472 -0.1308227294138093 0.0 
v 0.11947155219286547 -0.10541397196323538 0.0 
v 0.017729442204330325 0.024640280696373616 0.0 
v -0.31139864248979104 -0.2303044939272329 0.0 
v -0.0755096521742769 -0.2693029874008206 0.0 
v 0.16522500732971762 -0.2183053954844598 0.0 
v 0.11446035773799373 -0.22977966993674245 0.0 
v 0.25187452370868296 0.9677599001335632 0.0 
v 0.0073658161107514435 0.01938255452157318 0.0 
v -0.6921117402992226 -0.15012425592007073 0.0 
v 0.12304962864928051 -0.11870906324350758 0.0 
v -0.310348078454466 -0.439506199799293 0.0 
v 0.10332583646878882 -0.10008651830650436 0.0 
v -0.13568233083278147 -0.2916068216576536 0.0 
v 0.015156612468732568 0.025085568184356182 0.0 
v 0.013190371346235727 0.032315314596264105 0.0 
v 0.12257339943198209 -0.12251434371215729 0.0 
v 0.12150927457594944 -0.12006894981058819 0.0 
v 0.12662802069074555 -0.1340608684879069 0.0 
v -0.22230797587994516 -0.43927298803592546 0.0 
v -0.13644887518767515 -0.33685328958769156 0.0 
v -0.11960560994934226 -0.31333263595735833 0.0 
v 0.12115374745374272 -0.12235141554212176 0.0 
v 0.02022020651530787 0.04333730789586383 0.0 
v 0.12120536847013062 -0.14677979743342084 0.0 
v 0.12891907536709687 -0.0913773209427602 0.0 
v 0.024969824572756313 0.02751556801803147 0.0 
v -0.14361724171441756 0.25514986634610903 0.0 
v -0.26341350645459854 -0.44266550800240095 0.0 
v -0.1562936047523865 -0.367406593682783 0.0 
v -0.008446760068170479 0.010561922481212098 0.0 
v 0.12372000025860531 -0.12384349381935089 0.0 
v 0.12632056482967732 -0.11895753948393044 0.0 
v 0.09832586920489272 -0.16151485911235355 0.0 
v 0.07297311482358841 0.24240350851702472 0.0 
v -0.02618703597560635 -0.8574928756010706 0.0 
v 0.47390402671623816 -0.20430565347449317 0.0 
v 0.1395507664418315 -0.14970558292044567 0.0 
v -0.17074514281173267 -0.46186470405241653 0.0 
v -0.14801144565626156 -0.4078828702108665 0.0 
v -0.11448233619086925 -0.33583395256772547 0.0 
v 0.10813206215863463 -0.12409863118862763 0.0 
v -0.09848269480101632 -0.30465958531806303 0.0 
v 0.019957321605407263 0.026454072688696848 0.0 
v -0.12086735460162365 0.02830217219171467 0.0 
v -0.4167822806177036 -0.08796388562534727 0.0 
v 0.11979228797171597 -0.12451500461369916 0.0 
v 0.12012309042019162 -0.12279859497693978 0.0 
v 0.12406166500846295 -0.12460364476956663 0.0 
v 0.12465221533886929 -0.12389622700939276 0.0 
v 0.1258119750899941 -0.12392258140810146 0.0 
v 0.19606605844414945 -0.12862679385312412 0.0 
v 0.020217559059693316 0.026639082265254656 0.0 
v -0.3212933175691489 -0.4863188786511621 0.0 
v -0.284995527332251 -0.474697831679959 0.0 
v -0.23907050403697394 -0.48836592877437535 0.0 
v 0.03045475800541061 0.026285641787988097 0.0 
v -0.13242312899984388 -0.38388993309869557 0.0 
v 0.0344529659130108 0.037725875829216354 0.0 
v 0.11593948252515474 -0.12155228347498861 0.0 
v 0.16831666264896605 -0.12741504541477977 0.0 
v 0.12470845585759316 -0.12871621921996887 0.0 
v 0.1287844825318687 -0.13054523874925206 0.0 
v 0.11956353225195644 -0.12342852263458116 0.0 
v 0.01977009209555677 0.026103756301715023 0.0 
v 0.016016393247299494 0.025899755170091094 0.0 
v -0.4429207099675834 -0.60935472806374 0.0 
v 0.06317330516171432 -0.00712045735427512 0.0 
v -0.2908522301460676 -0.5166326431725632 0.0 
v -0.12756885771746299 -0.43445003351054184 0.0 
v -0.09827690288801523 -0.32383152896875483 0.0 
v -0.08231442760237119 -0.28783261525899423 0.0 
v 0.03643223272531155 -0.05466105375780877 0.0 
v 0.03011736054973149 0.0338407365189053 0.0 
v 0.02856154866636242 0.03478818428813495 0.0 
v 0.12679666585146163 -0.11520163120868437 0.0 
v 0.12515694908883543 -0.12303733935242603 0.0 
v 0.023040277270146816 0.02754474596042721 0.0 
v -0.10637541753457977 -0.3988479750599945 0.0 
v -0.09906824487316596 -0.34373001488368415 0.0 
v -0.08244532313741325 -0.31126498085228993 0.0 
v 0.0695108550181325 0.007951327681800045 0.0 
v -0.2590862873927445 0.30305770148130073 0.0 
v -0.197843403758653 0.31634665229834735 0.0 
v 0.12378521779405806 -0.16679637708142606 0.0 
v 0.12817091339188386 -0.1257490671635134 0.0 
v 0.12394905338575433 -0.12273743309321615 0.0 
v 0.017650135794452987 0.026231293587773645 0.0 
v -0.11409831613779516 -0.4682257376464736 0.0 
v -0.07062006656951461 -0.419271267145493 0.0 
v 0.016009096062384733 0.0456737843001716 0.0 
v 0.11935199647843957 -0.11771059005257031 0.0 
v 0.025822569709121553 0.01978163987121478 0.0 
v 0.12724667065074458 -0.12613942909025533 0.0 
v -0.1915899544749848 -0.5283190077017865 0.0 
v 0.1333739381786322 -0.1350349780576733 0.0 
v -0.05778257635691941 -0.27605145018172406 0.0 
v -0.16157060178024535 -0.1932590513676166 0.0 
v 0.11800505241748852 -0.12368661383113433 0.0 
v 0.13117816326590875 -0.12550758258642633 0.0 
v 0.2309143663683897 -0.14824796929431389 0.0 
v 0.2580185771900298 -0.13338769048227955 0.0 
v 0.02906107000649777 0.04571843298666182 0.0 
v 0.1285342472433514 -0.11778823136791111 0.0 
v 0.052798995253828515 0.14321032078137222 0.0 
v 0.11842383915912401 -0.12159075068774405 0.0 
v -0.6529515412957757 0.7573996862419939 0.0 
v -0.24958919115923825 -0.5551088187755759 0.0 
v -0.12865156646887435 -0.5275630846785946 0.0 
v 0.35998468171651626 -0.1061838795945907 0.0 
v -0.09861396644694581 -0.43542888058295853 0.0 
v -0.06116235631095332 -0.35715325634326867 0.0 
v -0.5915792305395066 0.690375352075356 0.0 
v 0.11890843703184671 -0.11844387826649631 0.0 
v 0.006098126886619364 0.026776220633396988 0.0 
v 0.9090545482667659 -0.12155544009349632 0.0 
v 0.12065635549127539 -0.12356546757059501 0.0 
v 0.09740134894240465 -0.19680151332206486 0.0 
v 0.021259447283461897 0.01443594106678887 0.0 
v -0.23609003127698355 -0.622558066172184 0.0 
v -0.16596362119422345 -0.5566353700329743 0.0 
v 0.11697911128151113 -0.12728866886421888 0.0 
v -0.06676109797594826 -0.385044227282868 0.0 
v -0.07557720837628437 -0.33416800423340837 0.0 
v -0.0575753820193792 -0.30583317048222924 0.0 
v -0.0263426058391808 -0.28655373586437427 0.0 
v -0.07640614779470553 -0.17513743308485186 0.0 
v 0.11615096474572868 -0.11836536550028309 0.0 
v -0.0846031891063784 -0.49369833350204023 0.0 
v -0.042399556996046986 -0.4839225858865524 0.0 
v -0.03604601227293482 -0.31099262408857536 0.0 
v -0.03764594006814497 -0.25413827494627655 0.0 
v 0.022085119076025166 0.024217818036332696 0.0 
v 0.12921866374047508 -0.13325669231882997 0.0 
v 0.1246376143812342 -0.14129661846317118 0.0 
v -0.16659903587375685 -0.17092755320281325 0.0 
v -0.04610954085634403 -0.15790277647132614 0.0 
v -0.026377643333562847 -0.1582684112335563 0.0 
v 0.12646795325315735 -0.12557890018346174 0.0 
v 0.02601139292254594 0.029270736524041406 0.0 
v 0.023466521912057302 0.029718180478020047 0.0 
v 0.1452890371245114 0.05862918881640101 0.0 
v -0.14809326265416828 -0.5902832478547327 0.0 
v -0.000879466311825107 0.0170455621027096 0.0 
v -0.042519520550550444 -0.33396878289623827 0.0 
v -0.9079185665625442 0.19617434396366012 0.0 
v 0.05435270912366801 0.005896071850848627 0.0 
v -0.003493079247819895 -0.14333277507567427 0.0 
v 0.613766126609393 -0.7000345323465904 0.0 
v 0.023273758587358688 0.016285244914578265 0.0 
v -0.05945273019771966 -0.1620803237058377 0.0 
v -0.10768340921722497 -0.18010942737027047 0.0 
v -0.20328490940644625 -0.6948190335089653 0.0 
v -0.1316612018894913 -0.1696573452624588 0.0 
v -0.09065971371791316 -0.5890474068920434 0.0 
v -0.5806630022381414 0.16289383563133158 0.0 
v -0.016567918394202245 -0.3428286459182914 0.0 
v 0.32756542931586563 -0.694581998312194 0.0 
v -0.016681458743352067 -0.2623869260726235 0.0 
v 0.5091992752734094 -0.6954289006340374 0.0 
v 0.1387922567920075 -0.08540700521537146 0.0 
v 0.07479947185858772 -0.06405642760785038 0.0 
v 0.051727448090063154 -0.09030880021440633 0.0 
v -0.2517978018516523 0.002943471420148868 0.0 
v 0.6207612383188023 -0.4660546253801879 0.0 
v 0.017145244943559984 0.023155200432412388 0.0 
v 0.005934015962021825 0.016223049121133863 0.0 
v -0.125972827051533 -0.6587251567845569 0.0 
v 0.018266467336744533 0.012668819884930847 0.0 
v -0.036107950395578854 -0.43754953255022366 0.0 
v -0.04145479278865842 -0.4024075978446238 0.0 
v -0.03981270674157643 -0.11802254264316522 0.0 
v -0.23027902931042613 0.015663913486150885 0.0 
v 0.0847570829310165 -0.17252364014195745 0.0 
v 0.023028626734036117 0.02630667568467451 0.0 
v 0.11733803578504144 -0.1294946660944082 0.0 
v 0.7510800764205133 -0.28371833919163947 0.0 
v 0.2927426268836534 -0.778366780802556 0.0 
v 0.04160082416924427 -0.1070001548965035 0.0 
v 0.8748397676401054 -0.48441240792882917 0.0 
v 0.6819330218962084 -0.6308671831038826 0.0 
v 0.023840642883502752 0.030614076861974236 0.0 
v -0.9019824229638624 0.4317727511831193 0.0 
v 0.06148839826442442 -0.045456507597389034 0.0 
v -0.06345933165379888 -0.53243086974629 0.0 
v 0.8646255747150973 -0.34199050291939 0.0 
v 0.49441265121420214 -0.3913202495403787 0.0 
v -0.01774654068262886 -0.3176148071114597 0.0 
v 0.11396682870044225 -0.11934438220096125 0.0 
v 0.12100577775997166 -0.11572504582585454 0.0 
v 0.03181060244356665 -0.011680733891702667 0.0 
v -0.1809886063773503 0.06113021475223488 0.0 
v -0.5990252007783848 0.026762724868598136 0.0 
v 0.14497322131222082 -0.6162402667194888 0.0 
v 0.1170616174031111 -0.11769535835076844 0.0 
v 0.11740578319838578 -0.11580606006200056 0.0 
v -0.15865204196488278 -0.04176938387353539 0.0 
v 0.05720497464808396 0.060501483257982554 0.0 
v -0.08893959226969844 -0.05400824338354343 0.0 
v -0.12399380214081701 -0.03807571626717937 0.0 
v 0.4985456381199162 -0.6139115540957819 0.0 
v 0.21059626001556117 -0.5558589408234521 0.0 
v -0.0014392713571991106 -0.3619523042416547 0.0 
v -0.2996506897973812 0.0314095918928613 0.0 
v -0.05345736958993192 -0.22863672312665967 0.0 
v -0.11024433030643316 -0.20960998216868254 0.0 
v 0.0031698465442576654 -0.299928690655609 0.0 
v 0.020570243761557114 0.026647004335409046 0.0 
v 0.004199946179675317 0.0074343815208219735 0.0 
v 0.25878978726338203 -0.35074279239752776 0.0 
v 0.4028435204586222 -0.7638755656470426 0.0 
v 0.9711869186666824 -0.23831904877855406 0.0 
v 0.9855348842459218 -0.1694726878714605 0.0 
v 0.34038456433737535 0.09579758730806913 0.0 
v -0.06451558551850703 -0.2023570895239485 0.0 
v 0.1270078269296144 -0.12133683113020247 0.0 
v 0.0250708763328603 0.013296722635077262 0.0 
v 0.03615180915958276 -0.07868962654393113 0.0 
v 0.12731335827036266 -0.12513553820558576 0.0 
v 0.17648156421832784 -0.6800522622288134 0.0 
v 0.24935828538673957 -0.6285437993020775 0.0 
v 0.2893497215936043 -0.5278346513226074 0.0 
v 0.021131499311398218 0.022712322915431737 0.0 
v 0.011826966416837467 -0.3314163632456696 0.0 
v 0.009567216885655245 -0.26548394337649717 0.0 
v 0.03726710033000297 -0.09293673648686315 0.0 
v 0.025871081349644155 0.01724026643891508 0.0 
v -0.3720114581904299 0.058821115205048374 0.0 
v 0.0054917833283811114 -0.03086682628740673 0.0 
v 0.4239063419145817 -0.6714673684135024 0.0 
v 0.3813778464050953 -0.5895388233784559 0.0 
v 0.0960303823005319 -0.8798284047568298 0.0 
v 0.2114601585125828 -0.4711928998776521 0.0 
v 0.9520713840989001 -0.30587592187029783 0.0 
v 0.11456432497731298 -0.1289936016744533 0.0 
v 0.49652359700236126 -0.5170739331521315 0.0 
v 0.11640712763195116 -0.132168484843248 0.0 
v 0.013057511460903596 -0.46236436472428305 0.0 
v -0.11266425478776866 -0.05702022155357849 0.0 
v 0.03132944419361957 -0.36534354979977846 0.0 
v -0.08515359560546121 -0.12699202997466472 0.0 
v -0.08008060227623881 -0.09780503429373415 0.0 
v 0.9301957427212223 -0.3670638639573686 0.0 
v 0.7767910136412776 -0.42909896499475486 0.0 
v 0.5996482964535533 -0.5682598874670883 0.0 
v 0.3843959115025984 -0.47335845905089624 0.0 
v -0.07202364819816773 -0.15013878735361677 0.0 
v 0.12043192735434073 -0.13790120597732713 0.0 
v 0.580618471670496 -0.6417004115294761 0.0 
v 0.9061457685385393 -0.4229655377920284 0.0 
v 0.02457382642960287 0.024142246530683486 0.0 
v -0.26169316359037553 -0.038346341278514814 0.0 
v -0.11638163095127758 -0.15801435792650162 0.0 
v 0.009756261822590455 0.01776388817898929 0.0 
v -0.025564755627527722 -0.5792107822743204 0.0 
v 0.023501931119613614 0.027440410062098793 0.0 
v 0.8714694628701307 -0.2432203897102511 0.0 
v -0.661062541863259 0.6140598696985321 0.0 
v 0.719507811713536 -0.5399516175410707 0.0 
v 0.045499008673409974 -0.3336719413128502 0.0 
v 0.024970998221297534 0.022772041251152664 0.0 
v 0.023278653669479725 0.023002373756139876 0.0 
v 0.639847241226667 -0.2562288397968696 0.0 
v 0.5809150237693879 -0.17248168967023841 0.0 
v 0.12323501310142505 -0.11927657026660628 0.0 
v 0.6105572942734439 -0.7919720894131883 0.0 
v -0.14263334800320854 -0.008319760941177642 0.0 
v 0.07908135367659287 -0.004996825007866379 0.0 
v 0.6376840598878835 -0.35062309958570315 0.0 
v 0.12050962709414624 -0.12150282888691816 0.0 
v -0.052216538851576615 -0.6460713000137652 0.0 
v -0.008877208006052758 -0.5211430252441885 0.0 
v -0.025562128168326866 -0.058907890609631725 0.0 
v 0.03464238450241146 0.04787763154628632 0.0 
v 0.10836843753657234 -0.3358697781468608 0.0 
v -0.1589385809526954 -0.06177817112326416 0.0 
v 0.1261805641166878 -0.12661978892104692 0.0 
v 0.023699200917297675 0.026798447967846913 0.0 
v -0.1882045661228612 0.14273891177911774 0.0 
v -0.28493570780804833 0.061592383691588856 0.0 
v 0.6642954024066459 -0.7474701454515708 0.0 
v 0.12273166806286373 -0.11919613326385263 0.0 
v 0.3513879424749275 -0.2776874670264015 0.0 
v 0.07469177443346124 -0.31705209976805865 0.0 
v 0.05121149535001658 -0.12634889767828655 0.0 
v 0.07631998778262644 -0.1219849142835758 0.0 
v 0.03602981644567808 -0.6293551244871899 0.0 
v -0.024096086805697636 -0.1351041448053003 0.0 
v -0.041993016611056595 -0.14194252579784325 0.0 
v 0.09276609289241536 -0.12077989071857075 0.0 
v 0.07599209480177063 -0.28129051273429023 0.0 
v 0.3458017850612788 -0.365868111408693 0.0 
v -0.06339186366083566 -0.113555816910255 0.0 
v -0.048284654735586775 -0.011165360275091442 0.0 
v 0.12131728937062389 -0.12117430619861982 0.0 
v 0.12705228609753674 -0.12769246594534964 0.0 
v -0.005690572517002902 -0.0006226547469264484 0.0 
v 0.02579444201849693 -0.5572169672624465 0.0 
v 0.03930844276165653 -0.5117125815712388 0.0 
v -0.020310578449552988 0.016049852037756072 0.0 
v 0.26354176202517815 -0.4043208058557045 0.0 
v 0.29890986773904843 -0.44851498550311064 0.0 
v 0.3225590519324014 0.9465493426211179 0.0 
v 0.012167774133019237 0.008456002144861651 0.0 
v 0.01822177779315015 0.007367497298476653 0.0 
v -0.07365347670354602 -0.010787469524753446 0.0 
v 0.0784915538162044 -0.47317522788998034 0.0 
v 0.024780069137589872 0.007560009965215102 0.0 
v 0.03014075362150935 0.011091355860298089 0.0 
v -0.16858642611785568 0.03518722514998592 0.0 
v 0.4325098282206519 -0.2889459395946499 0.0 
v -0.08873289659538475 -0.1988584064586507 0.0 
v -0.4211032495199464 -0.05249301842443241 0.0 
v 0.08807591451873052 -0.5446633227352954 0.0 
v 0.13246004562141722 -0.10744184250243648 0.0 
v 0.1324012358791994 -0.14167566732437284 0.0 
v -0.27796950269938453 0.007927984242826978 0.0 
v 0.048920989207144036 -0.005796067271995033 0.0 
v 0.052588533026710446 -0.021963852930251684 0.0 
v 0.019196528870862862 0.02603700378947076 0.0 
v 0.05989646845442669 -0.17251416695628907 0.0 
v 0.12220175052929094 -0.12085738143973856 0.0 
v 0.024390743638270686 0.028008227485822254 0.0 
v -0.19876121789969223 0.1716771181924376 0.0 
v -0.12369960685370068 -0.07947884651452423 0.0 
v 0.13944581050150015 -0.10612114666728072 0.0 
v 0.019780760883118906 0.022099475121598253 0.0 
v 0.1818999732062384 0.9051129725724064 0.0 
v 0.023357724862505255 0.025574599517182686 0.0 
v 0.023784661042388366 0.026114738246378836 0.0 
v 0.03857296895372952 0.009728575403198814 0.0 
v 0.04776966116076431 0.017312056977276134 0.0 
v 0.10491638720717184 -0.3758355616169562 0.0 
v -0.0036882759400683435 -0.1664035097012602 0.0 
v 0.020322104654903927 0.0271427873948347 0.0 
v -0.008803988094472406 -0.11395446927626236 0.0 
v 0.01958831990112167 -0.09574836429261162 0.0 
v -0.02892024549503573 -0.007655864035752502 0.0 
v -0.01850842070798617 0.0018498591736225707 0.0 
v 0.010034522662665565 0.035896447698028855 0.0 
v 0.08388399385588197 -0.09997013121147635 0.0 
v 0.1456890734287528 -0.269235085391261 0.0 
v -0.8058551054117415 0.026167791632841903 0.0 
v 0.02448277736917622 0.028516361188767412 0.0 
v 0.1371778538062186 -0.12326730992793204 0.0 
v -0.4020892259466779 0.056720097220292004 0.0 
v 0.10864424726588283 -0.29693267266360607 0.0 
v 0.19939164763061218 -0.30618561233082753 0.0 
v -0.06225673176403913 0.0022046256127794127 0.0 
v 0.017467229727114713 0.07586921819721569 0.0 
